<?xml version="1.0" encoding="utf-8"?>
<!-- Generator: Adobe Illustrator 17.0.0, SVG Export Plug-In . SVG Version: 6.00 Build 0)  -->
<!DOCTYPE svg PUBLIC "-//W3C//DTD SVG 1.1//EN" "http://www.w3.org/Graphics/SVG/1.1/DTD/svg11.dtd">
<svg version="1.1" id="Capa_1" xmlns="http://www.w3.org/2000/svg" xmlns:xlink="http://www.w3.org/1999/xlink" x="0px" y="0px"
	 width="39.685px" height="39.685px" viewBox="16.657 19.157 39.685 39.685" enable-background="new 16.657 19.157 39.685 39.685"
	 xml:space="preserve">
<g id="Layer_3" display="none">
</g>
<g id="Mensaje_de_error_3_copy_2">
	<g>
		<circle fill="#D35D2B" cx="36.58" cy="39" r="19.177"/>
		<g>
			<g>
				<line fill="none" x1="28.208" y1="33.083" x2="45.29" y2="33.083"/>
				<g>
					<path fill="#FFFFFF" d="M28.208,34.727c5.694,0,11.388,0,17.083,0c2.121,0,2.121-3.289,0-3.289c-5.694,0-11.388,0-17.083,0
						C26.087,31.438,26.087,34.727,28.208,34.727L28.208,34.727z"/>
				</g>
			</g>
			<g>
				<line fill="none" x1="28.208" y1="39.205" x2="45.29" y2="39.205"/>
				<g>
					<path fill="#FFFFFF" d="M28.208,40.849c5.694,0,11.388,0,17.083,0c2.121,0,2.121-3.289,0-3.289c-5.694,0-11.388,0-17.083,0
						C26.087,37.56,26.087,40.849,28.208,40.849L28.208,40.849z"/>
				</g>
			</g>
			<g>
				<line fill="none" x1="28.208" y1="44.915" x2="45.29" y2="44.915"/>
				<g>
					<path fill="#FFFFFF" d="M28.208,46.56c5.694,0,11.388,0,17.083,0c2.121,0,2.121-3.289,0-3.289c-5.694,0-11.388,0-17.083,0
						C26.087,43.271,26.087,46.56,28.208,46.56L28.208,46.56z"/>
				</g>
			</g>
		</g>
	</g>
</g>
</svg>
