<?xml version="1.0" encoding="utf-8"?>
<!-- Generator: Adobe Illustrator 16.0.0, SVG Export Plug-In . SVG Version: 6.00 Build 0)  -->
<!DOCTYPE svg PUBLIC "-//W3C//DTD SVG 1.1//EN" "http://www.w3.org/Graphics/SVG/1.1/DTD/svg11.dtd">
<svg version="1.1" id="Layer_1" xmlns="http://www.w3.org/2000/svg" xmlns:xlink="http://www.w3.org/1999/xlink" x="0px" y="0px"
	 width="197.26px" height="63.014px" viewBox="0 0 197.26 63.014" enable-background="new 0 0 197.26 63.014" xml:space="preserve">
<g>
	<g>
		<path fill="#00A6A5" d="M38.014,25.932l-7.093-0.672c-0.448-0.042-0.834-0.325-1.015-0.753l-2.543-6.155
			c-0.405-1.02-1.85-1.02-2.254,0l-2.523,6.155c-0.159,0.428-0.568,0.711-1.017,0.753l-7.093,0.672
			c-1.057,0.101-1.483,1.425-0.691,2.132l5.348,4.696c0.346,0.308,0.487,0.752,0.385,1.2l-1.604,6.588
			c-0.248,1.036,0.873,1.887,1.809,1.34l5.915-3.477c0.384-0.225,0.851-0.225,1.24,0l5.913,3.477
			c0.934,0.546,2.055-0.285,1.811-1.34l-1.588-6.588c-0.101-0.448,0.041-0.893,0.387-1.2l5.346-4.696
			C39.519,27.357,39.071,26.032,38.014,25.932z"/>
	</g>
</g>
<g>
	<g>
		<path fill="#00A6A5" d="M72.797,25.932l-7.092-0.672c-0.449-0.042-0.836-0.325-1.017-0.753l-2.543-6.155
			c-0.405-1.02-1.85-1.02-2.255,0l-2.523,6.155c-0.158,0.428-0.567,0.711-1.016,0.753l-7.091,0.672
			c-1.058,0.101-1.485,1.425-0.691,2.132l5.346,4.696c0.346,0.308,0.487,0.752,0.385,1.2l-1.604,6.588
			c-0.246,1.036,0.872,1.887,1.808,1.34l5.916-3.477c0.385-0.225,0.853-0.225,1.24,0l5.913,3.477
			c0.936,0.546,2.054-0.285,1.811-1.34l-1.588-6.588c-0.101-0.448,0.041-0.893,0.387-1.2l5.348-4.696
			C74.303,27.357,73.855,26.032,72.797,25.932z"/>
	</g>
</g>
<g>
	<g>
		<path fill="#00A6A5" d="M107.578,25.932l-7.093-0.672c-0.447-0.042-0.834-0.325-1.016-0.753l-2.542-6.155
			c-0.407-1.02-1.852-1.02-2.255,0l-2.523,6.155c-0.161,0.428-0.567,0.711-1.016,0.753l-7.093,0.672
			c-1.058,0.101-1.484,1.425-0.691,2.132l5.346,4.696c0.346,0.308,0.488,0.752,0.387,1.2l-1.604,6.588
			c-0.248,1.036,0.87,1.887,1.808,1.34l5.916-3.477c0.383-0.225,0.851-0.225,1.237,0l5.917,3.477
			c0.934,0.546,2.054-0.285,1.809-1.34l-1.586-6.588c-0.102-0.448,0.041-0.893,0.387-1.2l5.346-4.696
			C109.083,27.357,108.635,26.032,107.578,25.932z"/>
	</g>
</g>
<g>
	<path fill="#00A6A5" d="M144.228,26.304l-7.094-0.672c-0.447-0.039-0.833-0.322-1.017-0.75l-2.541-6.155
		c-0.404-1.02-1.849-1.02-2.255,0l-2.522,6.155c-0.161,0.428-0.567,0.711-1.016,0.75l-7.095,0.672
		c-1.057,0.103-1.482,1.425-0.69,2.134l5.349,4.695c0.346,0.309,0.486,0.753,0.385,1.201l-1.604,6.587
		c-0.247,1.034,0.871,1.887,1.81,1.339l5.916-3.477c0.383-0.225,0.851-0.225,1.236,0l5.916,3.477
		c0.934,0.548,2.055-0.285,1.811-1.339l-1.588-6.587c-0.101-0.448,0.041-0.893,0.388-1.201l5.346-4.695
		C145.733,27.729,145.285,26.406,144.228,26.304z"/>
</g>
<g>
	<path fill="#00A6A5" d="M179.007,26.304l-7.091-0.672c-0.448-0.039-0.834-0.322-1.017-0.75l-2.541-6.155
		c-0.406-1.02-1.852-1.02-2.256,0l-2.523,6.155c-0.159,0.428-0.568,0.711-1.016,0.75l-7.092,0.672
		c-1.06,0.103-1.484,1.425-0.691,2.134l5.346,4.695c0.346,0.309,0.486,0.753,0.387,1.201l-1.604,6.587
		c-0.245,1.034,0.873,1.887,1.809,1.339l5.915-3.477c0.387-0.225,0.854-0.225,1.24,0l5.914,3.477
		c0.934,0.548,2.054-0.285,1.811-1.339l-1.589-6.587c-0.101-0.448,0.043-0.893,0.39-1.201l5.347-4.695
		C180.515,27.729,180.067,26.406,179.007,26.304z"/>
</g>
</svg>
