<?xml version="1.0" encoding="utf-8"?>
<!-- Generator: Adobe Illustrator 15.0.0, SVG Export Plug-In . SVG Version: 6.00 Build 0)  -->
<!DOCTYPE svg PUBLIC "-//W3C//DTD SVG 1.1//EN" "http://www.w3.org/Graphics/SVG/1.1/DTD/svg11.dtd">
<svg version="1.1" id="Layer_1" xmlns="http://www.w3.org/2000/svg" xmlns:xlink="http://www.w3.org/1999/xlink" x="0px" y="0px"
	 width="34.417px" height="34.334px" viewBox="2.083 1.333 34.417 34.334" enable-background="new 2.083 1.333 34.417 34.334"
	 xml:space="preserve">
<g>
	<g>
		<path fill="#F15D22" d="M19.292,1.513C9.91,1.513,2.304,9.119,2.304,18.5S9.91,35.489,19.292,35.489S36.28,27.882,36.28,18.5
			C36.28,9.117,28.674,1.513,19.292,1.513z M15.045,26.729h-4.247V11.864h4.247V26.729z M13.053,10.954
			c-1.1,0-1.989-0.891-1.989-1.992c0-1.1,0.892-1.992,1.989-1.992c1.101,0.002,1.992,0.894,1.992,1.992
			C15.045,10.062,14.153,10.954,13.053,10.954z M29.909,26.729h-4.247v-9.19c0-1.076-0.309-1.831-1.631-1.831
			c-2.192,0-2.616,1.831-2.616,1.831v9.19h-4.246V11.864h4.246v1.421c0.607-0.464,2.124-1.417,4.247-1.417
			c1.377,0,4.247,0.824,4.247,5.801V26.729z"/>
	</g>
</g>
</svg>
