<?xml version="1.0" encoding="utf-8"?>
<!-- Generator: Adobe Illustrator 15.0.0, SVG Export Plug-In . SVG Version: 6.00 Build 0)  -->
<!DOCTYPE svg PUBLIC "-//W3C//DTD SVG 1.1//EN" "http://www.w3.org/Graphics/SVG/1.1/DTD/svg11.dtd">
<svg version="1.1" id="Layer_1" xmlns="http://www.w3.org/2000/svg" xmlns:xlink="http://www.w3.org/1999/xlink" x="0px" y="0px"
	 width="34.417px" height="34.334px" viewBox="2.083 1.333 34.417 34.334" enable-background="new 2.083 1.333 34.417 34.334"
	 xml:space="preserve">
<g>
	<g>
		<path fill="#F15D22" d="M19.292,1.609c-9.345,0-16.92,7.576-16.92,16.92c0,9.344,7.576,16.92,16.92,16.92
			c9.344,0,16.92-7.576,16.92-16.92C36.212,9.182,28.636,1.609,19.292,1.609z M23.665,18.526l-2.771,0.002L20.89,28.681h-3.804
			V18.529h-2.538v-3.498l2.538-0.002l-0.004-2.06c0-2.856,0.774-4.592,4.136-4.592h2.799v3.5h-1.752
			c-1.309,0-1.371,0.489-1.371,1.401l-0.004,1.751h3.146L23.665,18.526z"/>
	</g>
</g>
</svg>
