<?xml version="1.0" encoding="utf-8"?>
<!-- Generator: Adobe Illustrator 15.0.0, SVG Export Plug-In . SVG Version: 6.00 Build 0)  -->
<!DOCTYPE svg PUBLIC "-//W3C//DTD SVG 1.1//EN" "http://www.w3.org/Graphics/SVG/1.1/DTD/svg11.dtd">
<svg version="1.1" id="Layer_1" xmlns="http://www.w3.org/2000/svg" xmlns:xlink="http://www.w3.org/1999/xlink" x="0px" y="0px"
	 width="34.417px" height="34.334px" viewBox="2.083 1.333 34.417 34.334" enable-background="new 2.083 1.333 34.417 34.334"
	 xml:space="preserve">
<g>
	<path fill="#F15D22" d="M19.265,1.773c-9.253,0-16.756,7.502-16.756,16.755c0,9.253,7.503,16.756,16.756,16.756
		c9.255,0,16.756-7.503,16.756-16.756C36.021,9.275,28.52,1.773,19.265,1.773z M28.895,13.59c0.009,0.213,0.014,0.427,0.014,0.643
		c0,6.564-4.996,14.137-14.136,14.137c-2.806,0-5.417-0.823-7.616-2.233c0.389,0.047,0.784,0.069,1.186,0.069
		c2.328,0,4.47-0.792,6.171-2.126c-2.175-0.039-4.009-1.478-4.641-3.45c0.303,0.058,0.613,0.09,0.935,0.09
		c0.452,0,0.892-0.062,1.308-0.176c-2.273-0.457-3.985-2.464-3.985-4.871c0-0.021,0-0.042,0.002-0.062
		c0.669,0.372,1.435,0.596,2.249,0.621c-1.333-0.891-2.21-2.412-2.21-4.135c0-0.911,0.245-1.764,0.673-2.498
		c2.449,3.006,6.111,4.984,10.241,5.191c-0.084-0.364-0.13-0.743-0.13-1.132c0-2.744,2.226-4.968,4.969-4.968
		c1.43,0,2.722,0.604,3.627,1.569c1.131-0.223,2.195-0.636,3.153-1.206c-0.369,1.16-1.156,2.134-2.184,2.749
		c1.006-0.121,1.964-0.387,2.854-0.783C30.707,12.015,29.866,12.89,28.895,13.59z"/>
</g>
</svg>
