<?xml version="1.0" encoding="utf-8"?>
<!-- Generator: Adobe Illustrator 16.0.0, SVG Export Plug-In . SVG Version: 6.00 Build 0)  -->
<!DOCTYPE svg PUBLIC "-//W3C//DTD SVG 1.1//EN" "http://www.w3.org/Graphics/SVG/1.1/DTD/svg11.dtd">
<svg version="1.1" id="Layer_1" xmlns="http://www.w3.org/2000/svg" xmlns:xlink="http://www.w3.org/1999/xlink" x="0px" y="0px"
	 width="142px" height="171px" viewBox="0 0 142 171" enable-background="new 0 0 142 171" xml:space="preserve">
<g>
	<g>
		<g>
			<path fill-rule="evenodd" clip-rule="evenodd" fill="#F8CB96" d="M97.066,103.819c-0.557,0.633-2.81-1.217-3.575-1.418
				c0.339,3.632-1.915,9.332-5.665,8.345c2.146,3.573-4.549,9.633-9.363,8.799c2.25,4.146,2.047,11.422-2.642,11.464
				c2.768,3.046-0.544,8.4-3.993,9.612c6.476,3.978,10.08,4.757,18.15,6.909c5.356,1.996,17.608-5.177,23.714-2.708
				c10.392,4.203,8.182-9.064,10.392-12.788"/>
			<path fill-rule="evenodd" clip-rule="evenodd" fill="#F8CB96" stroke="#F7CB95" stroke-miterlimit="10" d="M92.482,102.961
				c-2.448-1.971-15.749-11.568-19.754-9.885c-2.845,1.19-4.354,5.314-3.243,7.201c0.949,1.622,16.27,13.438,19.31,13.431
				C93.58,113.7,95.757,105.58,92.482,102.961z"/>
			<path fill-rule="evenodd" clip-rule="evenodd" fill="#F8CB96" stroke="#F7CB95" stroke-miterlimit="10" d="M87.342,113.178
				c-1.401-1.845-6.781-4.447-11.529-7.257c-4.624-2.746-11.57-8.584-14.464-3.013c-2.531,4.865,4.449,7.766,10.097,11.115
				c4.713,2.794,11.776,8.648,15.115,5.533C89.064,117.208,88.019,114.06,87.342,113.178z"/>
			<path fill-rule="evenodd" clip-rule="evenodd" fill="#F8CB96" stroke="#F7CB95" stroke-miterlimit="10" d="M81.408,122.372
				c-1.5-1.81-16.942-12.046-20.783-11.009c-1.562,0.409-2.902,2.102-3.476,3.462c-1.885,4.513,4.628,7.204,9.967,10.259
				c4.958,2.845,10.453,7.449,13.876,3.867C83.908,125.903,82.22,123.35,81.408,122.372z"/>
			<path fill-rule="evenodd" clip-rule="evenodd" fill="#F8CB96" stroke="#F7CB95" stroke-width="2" stroke-miterlimit="10" d="
				M55.441,129.918c1.608,2.128,14.217,12.307,19.479,9.265c2.416-1.4,2.153-4.858-0.004-6.573
				c-3.664-2.914-11.257-7.159-14.734-8.137c-1.646-0.464-3.077,0.221-3.757,1.177C54.758,127.965,55.373,129.821,55.441,129.918z"
				/>
		</g>
		<g>
			<path fill="#B9BABB" d="M82.496,152.232c-0.703,2.787-3.535,4.476-6.327,3.772l-44.88-11.347c-2.79-0.704-4.48-3.538-3.772-6.325
				L52.361,40.04c0.704-2.79,3.536-4.476,6.33-3.772l44.882,11.345c2.785,0.706,4.478,3.538,3.772,6.327L82.496,152.232z"/>
			<path fill="#FFFFFF" d="M83.064,136.83c-0.544,2.166-2.99,3.416-5.464,2.792l-39.785-10.057
				c-2.469-0.626-4.028-2.887-3.481-5.053l19.298-76.346c0.549-2.166,2.995-3.416,5.469-2.79l39.782,10.055
				c2.472,0.626,4.031,2.887,3.484,5.053L83.064,136.83z"/>
			<circle fill="#6E6F71" cx="55.638" cy="142.783" r="3.222"/>
			<g>
				<defs>
					<path id="SVGID_7_" d="M83.064,136.83c-0.544,2.166-2.99,3.416-5.464,2.792l-39.785-10.057
						c-2.469-0.626-4.028-2.887-3.481-5.053l19.298-76.346c0.549-2.166,2.995-3.416,5.469-2.79l39.782,10.055
						c2.472,0.626,4.031,2.887,3.484,5.053L83.064,136.83z"/>
				</defs>
				<clipPath id="SVGID_1_">
					<use xlink:href="#SVGID_7_"  overflow="visible"/>
				</clipPath>
				<g transform="matrix(1 0 0 1 3.814697e-06 3.814697e-06)" clip-path="url(#SVGID_1_)">
					
						<image overflow="visible" width="241" height="656" xlink:href="E512E13D3E71B2F.jpg"  transform="matrix(0.2022 0.0511 -0.0511 0.2022 53.8154 47.4399)">
					</image>
				</g>
			</g>
		</g>
	</g>
	<g>
		<path fill-rule="evenodd" clip-rule="evenodd" fill="#F8CB96" d="M92.912,116.472c0.659-0.416,1.21-2.984,1.135-3.812
			c-0.951-7.219-13.71-20.951-10.336-27.181c1-1.85,5.389-4.016,7.584-2.925c2.285,1.135,2.271,3.768,4.305,7.022
			c4.286,6.823,22.529,35.647,28.484,42.459"/>
	</g>
</g>
</svg>
