<?xml version="1.0" encoding="utf-8"?>
<!-- Generator: Adobe Illustrator 16.0.0, SVG Export Plug-In . SVG Version: 6.00 Build 0)  -->
<!DOCTYPE svg PUBLIC "-//W3C//DTD SVG 1.1//EN" "http://www.w3.org/Graphics/SVG/1.1/DTD/svg11.dtd">
<svg version="1.1" id="Layer_1" xmlns="http://www.w3.org/2000/svg" xmlns:xlink="http://www.w3.org/1999/xlink" x="0px" y="0px"
	 width="168px" height="171px" viewBox="0 0 168 171" enable-background="new 0 0 168 171" xml:space="preserve">
<g>
	<rect x="45.975" y="104.132" fill="#F8AF43" width="3.466" height="2.987"/>
	<path fill-rule="evenodd" clip-rule="evenodd" fill="#F7FCFD" d="M38.949,103.593c-0.374,0.146-0.632,0.405-0.778,0.779
		c-0.378-0.129-0.473-0.685-0.189-0.969C38.265,103.121,38.82,103.216,38.949,103.593z"/>
	<path fill-rule="evenodd" clip-rule="evenodd" fill="#F7FCFD" d="M40.91,104.372c-0.146-0.375-0.406-0.633-0.78-0.779
		c0.13-0.377,0.684-0.472,0.97-0.189C41.384,103.687,41.288,104.243,40.91,104.372z"/>
	<path fill-rule="evenodd" clip-rule="evenodd" fill="#F7FCFD" d="M39.353,103.64c1.07-0.144,1.92,0.956,1.392,1.959
		c-0.492,0.934-1.941,0.891-2.409,0c-0.181-0.344-0.188-0.918,0-1.274C38.465,104.081,38.8,103.713,39.353,103.64z"/>
	<path fill-rule="evenodd" clip-rule="evenodd" fill="#F7FCFD" d="M38.146,104.396c-0.142,0.287-0.161,0.829,0,1.11
		C37.154,105.883,37.09,104.079,38.146,104.396z"/>
	<path fill-rule="evenodd" clip-rule="evenodd" fill="#F7FCFD" d="M40.934,105.529c0.174-0.293,0.108-0.874,0.024-1.133
		C41.967,104.11,41.953,105.837,40.934,105.529z"/>
	<path fill-rule="evenodd" clip-rule="evenodd" fill="#F7FCFD" d="M38.949,106.332c-0.129,0.382-0.689,0.468-0.968,0.189
		c-0.285-0.286-0.172-0.787,0.141-0.967C38.344,105.867,38.544,106.203,38.949,106.332z"/>
	<path fill-rule="evenodd" clip-rule="evenodd" fill="#F7FCFD" d="M40.91,105.554c0.378,0.127,0.474,0.683,0.189,0.967
		c-0.286,0.284-0.84,0.189-0.97-0.189C40.504,106.186,40.765,105.927,40.91,105.554z"/>
	<path fill-rule="evenodd" clip-rule="evenodd" fill="#F7FCFD" d="M38.974,106.356c0.287,0.142,0.828,0.16,1.11,0
		C40.461,107.35,38.657,107.412,38.974,106.356z"/>
	<path fill-rule="evenodd" clip-rule="evenodd" fill="#F7FCFD" d="M56.656,104.074c-0.287-0.141-0.828-0.16-1.11,0
		C55.167,103.081,56.974,103.017,56.656,104.074z"/>
	<path fill-rule="evenodd" clip-rule="evenodd" fill="#F7FCFD" d="M55.498,104.099c-0.373,0.145-0.632,0.405-0.78,0.778
		c-0.376-0.128-0.472-0.684-0.188-0.968C54.814,103.626,55.369,103.72,55.498,104.099z"/>
	<path fill-rule="evenodd" clip-rule="evenodd" fill="#F7FCFD" d="M57.458,104.877c-0.146-0.373-0.405-0.633-0.779-0.778
		c0.13-0.378,0.686-0.473,0.968-0.189C57.93,104.193,57.837,104.749,57.458,104.877z"/>
	<path fill-rule="evenodd" clip-rule="evenodd" fill="#F7FCFD" d="M55.901,104.146c1.071-0.144,1.922,0.956,1.392,1.96
		c-0.493,0.934-1.939,0.889-2.408,0c-0.183-0.346-0.188-0.919,0-1.275C55.013,104.585,55.35,104.218,55.901,104.146z"/>
	<path fill-rule="evenodd" clip-rule="evenodd" fill="#F7FCFD" d="M54.696,104.902c-0.143,0.286-0.162,0.827,0,1.108
		C53.703,106.389,53.639,104.583,54.696,104.902z"/>
	<path fill-rule="evenodd" clip-rule="evenodd" fill="#F7FCFD" d="M57.482,106.035c0.174-0.294,0.107-0.875,0.022-1.133
		C58.516,104.615,58.5,106.343,57.482,106.035z"/>
	<path fill-rule="evenodd" clip-rule="evenodd" fill="#F7FCFD" d="M55.498,106.838c-0.129,0.382-0.689,0.468-0.968,0.188
		c-0.286-0.285-0.172-0.787,0.141-0.968C54.892,106.373,55.093,106.708,55.498,106.838z"/>
	<path fill-rule="evenodd" clip-rule="evenodd" fill="#F7FCFD" d="M57.458,106.058c0.379,0.128,0.472,0.684,0.188,0.968
		c-0.282,0.284-0.838,0.189-0.968-0.188C57.053,106.691,57.312,106.432,57.458,106.058z"/>
	<path fill-rule="evenodd" clip-rule="evenodd" fill="#F7FCFD" d="M55.522,106.86c0.288,0.143,0.829,0.162,1.11,0
		C57.01,107.854,55.205,107.918,55.522,106.86z"/>
	<path fill-rule="evenodd" clip-rule="evenodd" fill="#F7FCFD" d="M59.444,108.758c-0.286-0.142-0.827-0.161-1.109,0
		C57.958,107.765,59.762,107.702,59.444,108.758z"/>
	<path fill-rule="evenodd" clip-rule="evenodd" fill="#F7FCFD" d="M43.544,110.197c-0.287-0.142-0.827-0.162-1.109,0
		C42.057,109.205,43.863,109.141,43.544,110.197z"/>
	<path fill-rule="evenodd" clip-rule="evenodd" fill="#F7FCFD" d="M42.388,110.221c-0.374,0.145-0.633,0.407-0.779,0.78
		c-0.377-0.129-0.473-0.685-0.188-0.969C41.704,109.748,42.26,109.843,42.388,110.221z"/>
	<path fill-rule="evenodd" clip-rule="evenodd" fill="#F7FCFD" d="M44.348,111c-0.146-0.373-0.405-0.635-0.778-0.78
		c0.127-0.377,0.684-0.473,0.968-0.189C44.821,110.316,44.725,110.871,44.348,111z"/>
	<path fill-rule="evenodd" clip-rule="evenodd" fill="#F7FCFD" d="M42.789,110.268c1.073-0.142,1.924,0.956,1.395,1.961
		c-0.492,0.934-1.941,0.889-2.41,0c-0.181-0.346-0.186-0.92,0-1.276C41.902,110.708,42.238,110.342,42.789,110.268z"/>
	<path fill-rule="evenodd" clip-rule="evenodd" fill="#F7FCFD" d="M41.586,111.024c-0.143,0.288-0.161,0.828,0,1.11
		C40.592,112.512,40.528,110.706,41.586,111.024z"/>
	<path fill-rule="evenodd" clip-rule="evenodd" fill="#F7FCFD" d="M44.373,112.158c0.173-0.293,0.106-0.875,0.023-1.134
		C45.407,110.737,45.391,112.464,44.373,112.158z"/>
	<path fill-rule="evenodd" clip-rule="evenodd" fill="#F7FCFD" d="M42.388,112.961c-0.13,0.381-0.689,0.466-0.967,0.188
		c-0.288-0.286-0.173-0.786,0.142-0.968C41.782,112.496,41.983,112.831,42.388,112.961z"/>
	<path fill-rule="evenodd" clip-rule="evenodd" fill="#F7FCFD" d="M44.348,112.181c0.377,0.129,0.473,0.685,0.189,0.968
		c-0.284,0.285-0.841,0.19-0.968-0.188C43.942,112.814,44.202,112.554,44.348,112.181z"/>
	<path fill-rule="evenodd" clip-rule="evenodd" fill="#F7FCFD" d="M42.412,112.984c0.287,0.142,0.828,0.161,1.11,0
		C43.899,113.977,42.094,114.041,42.412,112.984z"/>
	<path fill-rule="evenodd" clip-rule="evenodd" fill="#F7FCFD" d="M51.6,107.035c-0.287-0.143-0.828-0.162-1.11,0
		C50.111,106.041,51.917,105.977,51.6,107.035z"/>
	<path fill-rule="evenodd" clip-rule="evenodd" fill="#F7FCFD" d="M50.443,107.057c-0.375,0.146-0.636,0.406-0.78,0.779
		c-0.379-0.127-0.473-0.684-0.189-0.968S50.313,106.68,50.443,107.057z"/>
	<path fill-rule="evenodd" clip-rule="evenodd" fill="#F7FCFD" d="M52.402,107.836c-0.146-0.373-0.406-0.633-0.779-0.779
		c0.13-0.377,0.685-0.473,0.969-0.189S52.78,107.708,52.402,107.836z"/>
	<path fill-rule="evenodd" clip-rule="evenodd" fill="#F7FCFD" d="M49.64,107.861c-0.142,0.286-0.162,0.828,0,1.109
		C48.646,109.349,48.584,107.544,49.64,107.861z"/>
	<path fill-rule="evenodd" clip-rule="evenodd" fill="#F7FCFD" d="M52.426,108.994c0.176-0.293,0.108-0.874,0.024-1.132
		C53.46,107.573,53.445,109.301,52.426,108.994z"/>
	<circle fill="#44509D" cx="46.971" cy="104.046" r="0.332"/>
	<polygon fill="#241F20" points="60.654,106.346 35.467,106.335 35.489,103.616 60.763,103.616 	"/>
	<rect x="46.183" y="103.506" fill="#D0D1D2" width="3.466" height="2.987"/>
	<circle fill="none" stroke="#F8AF43" stroke-width="1.3225" stroke-miterlimit="10" cx="44.726" cy="105.083" r="0.443"/>
	<circle fill="none" stroke="#F8AF43" stroke-width="1.3225" stroke-miterlimit="10" cx="42.928" cy="105.083" r="0.443"/>
	<path fill="#EEC08F" d="M36.169,67.885l-0.012,12.484l-4.54,6.445c0,0-0.204,7.945-0.567,10.565
		c-0.072,0.515-0.281,1.743-0.201,2.568c0.08,0.826,0.977,0.906,1.089,2.062c0.113,1.157,0.369,3.799,0.464,4.791
		c0.098,0.991-0.226,1.459-0.945,1.529c-0.581,0.057-0.85-2.264-0.85-3.411c0-0.772-1.815-0.977-1.815,0.176
		c0,0.664,0.16,1.651,0.24,2.478c0.08,0.826,1.362,2.006,1.946,2.867c0.441,0.65,0.451,1.207,0.364,1.611
		c0,0-2.376-2.567-2.798-3.007c-0.259-0.272-0.536-0.051-0.287,0.285c0.37,0.492,3.079,3.274,3.387,3.963
		c0.171,0.384-0.2,1.122-0.518,0.967c-0.554-0.27-2.535-2.42-3.862-4.016c-1.186-1.425-1.18-4.672-0.604-8.783
		c0.444-3.168,0.304-4.89,0.304-4.89"/>
	<path fill="#EEC08F" d="M60.147,67.885l0.011,12.484l4.539,6.445c0,0,0.205,7.945,0.568,10.565
		c0.071,0.515,0.282,1.743,0.201,2.568c-0.08,0.826-0.977,0.906-1.089,2.062c-0.114,1.157-0.369,3.799-0.465,4.791
		c-0.096,0.991,0.227,1.459,0.946,1.529c0.58,0.057,0.849-2.264,0.849-3.411c0-0.772,1.818-0.977,1.818,0.176
		c0,0.664-0.161,1.651-0.242,2.478c-0.08,0.826-1.36,2.006-1.946,2.867c-0.44,0.65-0.45,1.207-0.364,1.611
		c0,0,2.378-2.567,2.8-3.007c0.259-0.272,0.534-0.051,0.285,0.285c-0.37,0.492-3.078,3.274-3.386,3.963
		c-0.172,0.384,0.199,1.122,0.517,0.967c0.554-0.27,2.536-2.42,3.862-4.016c1.187-1.425,1.181-4.672,0.604-8.783
		c-0.442-3.168-0.303-4.89-0.303-4.89"/>
	<g>
		<g>
			<rect x="44.547" y="60.275" fill="#F9D19B" width="6.096" height="7.618"/>
			<g>
				<path fill="#2A2623" d="M67.389,79.45c-2.799-6.463-7.164-12.55-7.167-12.557c-0.414-0.711-1.038-1.165-1.736-1.165H36.838
					c-0.657,0-1.246,0.404-1.659,1.042l0,0c0,0-4.956,6.998-6.603,12.679c-0.523,1.807-2.237,14.244-2.641,20.85
					c2.475,1.205,5.956,2.356,8.648,3.121c1.667,0.473,3.372,0.854,5.108,1.143c2.562,0.428,5.193,0.654,7.875,0.654
					c2.477,0,4.909-0.19,7.284-0.555c2.008-0.309,3.974-0.746,5.89-1.298c3.601-1.039,6.433-2.744,9.626-4.557
					C69.584,92.39,68.793,82.694,67.389,79.45z"/>
			</g>
			<polygon fill="#2A2623" points="46.675,44.097 31.48,34.573 46.675,27.646 61.87,34.573 			"/>
			<path fill="#F9D19B" d="M51.98,42.656h-9.001c-1.53,0-2.771,1.241-2.771,2.771v10.232c0,0.395,0.085,0.769,0.234,1.108
				c0.801,3.142,3.644,5.47,7.037,5.47c3.392,0,6.234-2.328,7.036-5.47c0.149-0.34,0.235-0.713,0.235-1.108V45.427
				C54.75,43.897,53.51,42.656,51.98,42.656z"/>
			<path fill="#442A1C" d="M42.619,43.426c0,0,3.284,3.462,7.207,3.385c3.923-0.076,7.846-2.693,7.846-2.693l-2.384-0.077
				l0.615-0.615h-0.769l1.538-0.77l-2.771-0.462c0,0-0.076-3.924-2.23-4.847c-2.155-0.923-7.156-0.461-9.848,3
				c0,0-2.231-0.768-3.231,0.846c-0.885,1.429-0.23,4.001,1,5.078v4.272h0.616v-4.146C40.208,46.398,42.619,47.146,42.619,43.426z"
				/>
			<rect x="39.592" y="45.937" fill="#442A1C" width="0.846" height="5.53"/>
			<rect x="54.212" y="45.272" fill="#442A1C" width="0.847" height="6.194"/>
			<g>
				<g>
					<g>
						<g id="Layer_2_8_">
							<path fill="#442A1C" d="M45.587,57.379c0.565,0,1.555-0.284,1.98-1.132c0.425,0.848,1.415,1.132,1.98,1.132
								c1.838,0,2.121-1.273,2.121-1.273c-0.14,0.141-0.423,0.284-0.848,0.284c-0.706,0-0.848-1.274-1.838-1.274
								c-0.99,0-1.415,0.708-1.415,0.708s-0.425-0.708-1.415-0.708c-0.989,0-1.13,1.274-1.837,1.274
								c-0.425,0-0.707-0.143-0.849-0.284C43.466,56.106,43.75,57.379,45.587,57.379z"/>
						</g>
					</g>
				</g>
				<g id="Layer_2_988_">
					<path fill="#442A1C" d="M47.567,55.823c0,0-0.425-0.708-1.415-0.708c-0.989,0-1.13,1.274-1.837,1.274
						c-0.425,0-0.708-0.143-0.849-0.284c0,0,0.283,1.273,2.121,1.273c0.565,0,1.555-0.284,1.98-1.132"/>
				</g>
			</g>
			
				<line fill="none" stroke="#2A2623" stroke-width="0.5" stroke-miterlimit="10" x1="47.663" y1="105.054" x2="47.663" y2="66.046"/>
			<polygon fill="#FFFFFF" points="44.508,66.046 47.705,85.526 50.867,66.092 			"/>
			<path fill="#BE2026" d="M47.663,66.292c0,0-1.966,7.919-1.652,11.709c0.283,3.389,1.652,11.763,1.652,11.763
				S49.205,81.61,49.396,78C49.602,74.111,47.663,66.292,47.663,66.292z"/>
			<path fill="#BE2026" d="M48.125,68.72c-0.255,0.255-0.669,0.255-0.924,0l-0.997-0.997c-0.255-0.254-0.255-0.669,0-0.923
				l0.997-0.997c0.255-0.256,0.669-0.256,0.924,0l0.996,0.997c0.255,0.254,0.255,0.669,0,0.923L48.125,68.72z"/>
			<polygon fill="#FFFFFF" points="47.663,65.576 44.334,63.568 42.964,65.576 46.21,67.261 			"/>
			<polygon fill="#FFFFFF" points="47.663,65.576 50.938,63.568 52.309,65.576 49.064,67.261 			"/>
			<rect x="38.184" y="36.624" fill="#2A2623" width="16.028" height="5.649"/>
			
				<line fill="none" stroke="#2A2623" stroke-width="0.75" stroke-miterlimit="10" x1="58.786" y1="35.206" x2="58.786" y2="43.391"/>
			<path fill="#2A2623" d="M58.143,45.968c0,0.356,0.288,0.644,0.644,0.644l0,0c0.356,0,0.644-0.288,0.644-0.644v-2.32
				c0-0.356-0.288-0.645-0.644-0.645l0,0c-0.355,0-0.644,0.289-0.644,0.645V45.968z"/>
		</g>
	</g>
	<polygon fill="#F9CD99" points="59.469,103.188 36.363,103.238 42.486,146.042 46.423,146.619 42.91,111.005 52.044,111.155 
		49.521,146.063 52.857,146.021 	"/>
	<polygon fill="#919495" points="60.563,103.169 35.489,103.169 40.882,141.394 46.562,141.394 45.745,111.135 50.217,111.135 
		49.419,141.394 54.598,141.484 	"/>
	<path fill="#241F20" d="M47.378,151.74l-0.664-7.596l-4.721-1.033v0.958l-4.644,4.057c0,0-5.606-0.737-5.606,3.613H47.378z"/>
	<path fill="#241F20" d="M48.478,151.74l0.665-7.596l4.719-1.033v0.958l4.648,4.057c0,0,5.604-0.737,5.604,3.613H48.478z"/>
	<path fill-rule="evenodd" clip-rule="evenodd" fill="#2A2623" d="M64.108,101.969c0-1.215-0.885-2.202-1.977-2.202H34.199
		c-1.093,0-1.977,0.987-1.977,2.202l1.497,33.983c0,1.216,0.885,2.202,1.977,2.202h24.44c1.091,0,1.978-0.986,1.978-2.202
		L64.108,101.969z"/>
</g>
<g>
	<polyline fill="#F9CC98" points="109.135,67.48 100.7,83.456 97.386,79.713 103.549,66.578 	"/>
	<g>
		<rect x="112.086" y="57.27" fill="#F9CC98" width="10.449" height="5.725"/>
		<path fill="#F9CC98" d="M112.086,62.758c0,1.551,1.257,2.808,2.809,2.808h4.365c1.55,0,2.808-1.257,2.808-2.808l0,0
			c0-1.551-1.257-2.81-2.808-2.81h-4.365C113.343,59.949,112.086,61.208,112.086,62.758L112.086,62.758z"/>
		<rect x="109.143" y="38.646" fill="#856C39" width="15.454" height="18.802"/>
		<path fill="#F9CC98" d="M130.272,74.224l2.451,6.825l0.249,13.571c0,0,0.096,0.651-0.114,1.307
			c-0.211,0.654-0.951,0.561-1.246,1.477c-0.296,0.917-0.97,3.013-1.224,3.799c-0.252,0.786-0.075,1.221,0.496,1.404
			c0.459,0.149,1.086-1.684,1.289-2.614c0.138-0.624,1.646-0.47,1.443,0.464c-0.117,0.539-0.423,1.31-0.633,1.965
			c-0.211,0.654-1.458,1.386-2.083,1.979c-0.473,0.448-0.578,0.897-0.579,1.241c0,0,2.378-1.66,2.797-1.943
			c0.259-0.174,0.443,0.055,0.18,0.283c-0.382,0.333-3.069,2.109-3.441,2.612c-0.208,0.281-0.036,0.943,0.249,0.874
			c0.498-0.122,2.482-1.512,3.837-2.569c1.216-0.946,1.523-3.605,2.447-6.921c0.922-3.316,0.618-4.015,0.618-4.015l-0.309-13.948
			l-2.391-6.445L130.272,74.224z"/>
		<rect x="109.224" y="139.955" fill="#F9CC98" width="4.049" height="6.166"/>
		<rect x="121.481" y="139.955" fill="#F9CC98" width="4.049" height="6.166"/>
		<path fill="#F9CC98" d="M110.746,47.423c0-2.102-1.076-5.724,0-7.102c1.075-1.377,4.299-0.507,6.401-0.507
			c2.4,0,5.113-2.03,6.168-0.295c0.795,1.303,0.234,6.101,0.234,7.904c0,4.202-2.2,7.611-6.403,7.611
			C112.943,55.034,110.746,51.625,110.746,47.423z"/>
		<g>
			<g>
				<g>
					<g id="Layer_2_9_">
						<path fill="#424242" d="M125.82,63.499c-0.143,0-0.393-0.071-0.5-0.286c-0.107,0.215-0.356,0.286-0.5,0.286
							c-0.463,0-0.534-0.322-0.534-0.322c0.036,0.036,0.108,0.073,0.214,0.073c0.178,0,0.213-0.323,0.464-0.323
							c0.249,0,0.356,0.179,0.356,0.179s0.107-0.179,0.357-0.179c0.25,0,0.287,0.323,0.463,0.323c0.108,0,0.179-0.038,0.215-0.073
							C126.356,63.177,126.285,63.499,125.82,63.499z"/>
					</g>
				</g>
			</g>
			<circle fill="#424242" cx="126.031" cy="62.083" r="0.648"/>
			<circle fill="#424242" cx="124.596" cy="62.089" r="0.648"/>
			<g id="Layer_2_209_">
				<path fill="#424242" d="M125.32,63.106c0,0,0.107-0.179,0.357-0.179c0.25,0,0.287,0.323,0.465,0.323
					c0.106,0,0.177-0.038,0.213-0.073c0,0-0.071,0.322-0.536,0.322c-0.143,0-0.393-0.071-0.5-0.286"/>
			</g>
		</g>
		<linearGradient id="SVGID_1_" gradientUnits="userSpaceOnUse" x1="104.1523" y1="121.1597" x2="127.7686" y2="121.1597">
			<stop  offset="0" style="stop-color:#09A7A6"/>
			<stop  offset="1" style="stop-color:#007A78"/>
		</linearGradient>
		<polygon fill="url(#SVGID_1_)" points="106.67,101.059 127.769,101.059 125.837,141.163 121.049,141.163 118.934,109.756 
			115.61,109.756 110.849,124.096 113.485,141.102 108.925,141.26 104.152,123.712 		"/>
		<path fill="#A58D50" d="M123.201,39.145c0,0-3.438,3.623-7.543,3.542c-4.108-0.079-6.523-2.818-6.523-2.818l0.806-0.08
			l-0.646-0.644h0.806l-0.887-0.805l2.176-0.483c0,0,0.08-4.108,2.333-5.074c2.257-0.966,7.492-0.483,10.31,3.141"/>
		<rect x="113.834" y="52.979" fill="#F9CC98" width="6.383" height="7.973"/>
		<g>
			<g>
				<path fill="none" stroke="#FFFFFF" stroke-width="1.3225" stroke-miterlimit="10" stroke-dasharray="6.8054,6.8054" d="
					M122.161,138.25"/>
				<path fill="none" stroke="#FFFFFF" stroke-width="1.3225" stroke-miterlimit="10" stroke-dasharray="6.8054,6.8054" d="
					M119.982,110.383"/>
			</g>
		</g>
		<path fill="#241F20" d="M99.336,74.104c1.593-3.448,4.967-10.5,4.967-10.5l2.355-5.04c0.515-0.796,1.484-1.27,2.509-1.27h0.576
			h1.98h0.71v3.689v0.236h0.011c0.121,1.441,1.327,2.572,2.797,2.572h2.095h0.103h2.095c1.473,0,2.678-1.131,2.797-2.572h0.012
			v-0.236v-3.689h0.711h1.978h0.574c1.029,0,1.998,0.474,2.511,1.27l2.356,5.04c0,0,1.316,2.775,2.909,6.224l1.14,2.437
			l-0.014,0.014c1.058,2.738,1.058,2.738,1.058,2.738l-5.587,1.863l-2.95-6.398c-0.071,1.317,1.625,3.824,1.2,5.708
			c-0.217,0.959-1.245,1.787-1.247,2.039c-0.041,3.466-0.542,5.421-0.542,7.063c0,2.965,2.067,18.868,2.067,18.868h-4.681h-0.77
			h-5.615h-0.103h-5.614h-0.773h-4.68c0,0,2.61-15.903,2.61-18.868c0-1.643-1.046-3.598-1.084-7.063
			c-0.002-0.252-1.031-1.08-1.248-2.039c-0.423-1.885,1.271-4.391,1.199-5.708l-2.95,6.398"/>
		<path fill="#241F20" d="M100.27,72.279"/>
		<g>
			<path fill="#241F20" d="M101.639,147.42c5.366,0,6.938-3.397,6.938-3.397l5.088,0.74l0.611,5.803H96.896
				C97.107,149.327,98.02,147.42,101.639,147.42z"/>
			<path fill="#FFFFFF" d="M114.275,150.567l0.111,1.042H96.853c0,0-0.058-0.444,0.043-1.042H114.275z"/>
			<path fill="#FFFFFF" d="M132.806,151.608h-12.66l0.109-1.042h12.508C132.866,151.165,132.806,151.608,132.806,151.608z"/>
			<path fill="#241F20" d="M125.954,144.023c0,0,1.79,3.311,2.606,3.397c3.744,0.395,3.991,1.906,4.202,3.146h-12.508l0.613-5.803
				L125.954,144.023z"/>
		</g>
		<g>
			<path fill="#241F20" d="M123.376,44.377v1.031c0,0-0.47,0.118-0.537,0.589c-0.064,0.47-0.509,1.856-1.451,2.144
				c-0.941,0.287-2.118,0.131-2.615-0.261c-0.496-0.393-0.667-0.824-0.81-1.256c-0.145-0.43-0.117-0.954-0.706-0.954
				c-0.588,0-0.497,0.601-0.628,0.915c-0.128,0.314-0.391,1.032-0.967,1.359c-0.574,0.328-1.49,0.497-2.418,0.223
				c-0.929-0.274-1.347-1.477-1.504-2.053c-0.157-0.575-0.574-0.785-0.574-0.785v-1.006c0,0,1.319-0.183,2.521-0.17
				c1.203,0.013,2.131,0.21,2.405,0.353c0.275,0.144,0.341,0.51,1.165,0.51c0.822,0,1.025-0.394,1.176-0.497
				C118.828,44.252,120.181,43.996,123.376,44.377z"/>
			<linearGradient id="SVGID_2_" gradientUnits="userSpaceOnUse" x1="118.2129" y1="46.2891" x2="122.3848" y2="46.2891">
				<stop  offset="0" style="stop-color:#09A7A6"/>
				<stop  offset="1" style="stop-color:#007A78"/>
			</linearGradient>
			<path fill="url(#SVGID_2_)" d="M122.382,45.945c0.015-0.307-0.026-0.975-0.562-1.193c-0.535-0.217-1.961-0.142-2.705,0.065
				c-0.746,0.205-0.915,0.718-0.902,1.013c0.013,0.296,0.078,1.579,1.018,1.926c0.942,0.347,2.289,0.256,2.681-0.359
				C122.305,46.781,122.366,46.326,122.382,45.945z"/>
			<linearGradient id="SVGID_3_" gradientUnits="userSpaceOnUse" x1="112.1587" y1="46.2876" x2="116.333" y2="46.2876">
				<stop  offset="0" style="stop-color:#09A7A6"/>
				<stop  offset="1" style="stop-color:#007A78"/>
			</linearGradient>
			<path fill="url(#SVGID_3_)" d="M112.161,45.945c-0.014-0.308,0.027-0.975,0.562-1.193c0.537-0.217,1.961-0.142,2.706,0.065
				c0.747,0.205,0.917,0.717,0.903,1.013c-0.014,0.296-0.08,1.577-1.02,1.924c-0.942,0.345-2.29,0.255-2.681-0.359
				C112.238,46.779,112.179,46.326,112.161,45.945z"/>
		</g>
		<path fill="#595B5C" d="M79.79,75.3c0.111,0.097,0.489-0.236,0.846-0.745l0,0c0.358-0.507,0.558-0.998,0.448-1.094l-9.393-8.214
			c-0.111-0.097-0.489,0.235-0.847,0.745l0,0c-0.358,0.507-0.555,0.997-0.445,1.095L79.79,75.3z"/>
		<path fill="#F9CC98" d="M83.635,76.554c-1.196-0.993-1.437-0.776-2.077-2.492l-0.229-0.613l-0.142-0.382
			c0,0-0.731-0.73-1.142-1.224c-0.328-0.391-0.713-0.72-1.19-0.542c-0.238,0.088-0.341,0.161-0.439,0.375
			c-0.099,0.215-0.108,0.331-0.02,0.569l1.696,1.242l-4.729-2.157l-0.004,0.01c-0.031-0.018-0.065-0.042-0.1-0.058l-2.544-2.43
			c-0.462-0.212-1.012-0.006-1.226,0.456c-0.097,0.217-0.103,0.449-0.036,0.66c0.046,0.149,0.131,0.285,0.251,0.396
			c0.07,0.067,0.149,0.125,0.245,0.169l2.616,2.456c0.036,0.018,0,0,0.035,0.01l-0.098,0.216c-0.033-0.019-0.066-0.042-0.102-0.059
			l-1.651-1c-0.096-0.044-0.196-0.067-0.294-0.076c-0.384-0.037-0.763,0.165-0.931,0.532c-0.21,0.465-0.006,1.014,0.457,1.224
			l1.655,1c0.035,0.016,0.074,0.027,0.108,0.037l-0.092,0.207l-1.703-0.988c-0.464-0.211-1.013-0.005-1.224,0.457
			c-0.212,0.466-0.007,1.012,0.456,1.224l1.704,0.988l-0.108,0.234l0.058,0.001c-0.464-0.212-1.011-0.008-1.222,0.456
			c-0.213,0.465-0.01,1.014,0.455,1.224c0,0,4.361,2.356,6.69,1.868L78.75,80.56c0,0,3.734-0.212,4.309,0.008
			c0.089,0.032,0.469,0.147,1.049,0.316l6.731-2.129C87.74,78.222,84.222,77.039,83.635,76.554z"/>
		<path fill="#F9CC98" d="M97.804,79.145l-14.237-2.79l-2.827,4.125l17.545,4.302c0,0,1.821,0.963,2.416-1.325"/>
		<path fill="#A58D50" d="M106.255,64.197c0,0,1.452-17.354,1.908-24.535c0.382-6.019,2.955-7.535,8.984-7.535
			s9.227,1.506,9.227,7.535h-0.005l1.69,24.741c0,0-4.617,1.043-5.34,0c2.037-5.335,0-26.432,0-26.432H111.57
			c0,0-1.538,24.132,0,26.432c0.405,0.607-1.289,0.616-2.891,0.393C107.312,64.606,106.255,64.197,106.255,64.197z"/>
	</g>
	<path fill="#560E30" d="M108.594,35.717c0-4.696,4.121-8.505,8.818-8.505c4.697,0,8.505,3.81,8.505,8.505H108.594z"/>
	<path fill="#791442" d="M107.734,37.139c0,0.832,0.677,1.507,1.507,1.507h15.932c0.831,0,1.506-0.675,1.506-1.507l0,0
		c0-0.832-0.675-1.982-1.506-1.982h-15.932C108.411,35.157,107.734,36.308,107.734,37.139L107.734,37.139z"/>
</g>
</svg>
