<?xml version="1.0" encoding="utf-8"?>
<!-- Generator: Adobe Illustrator 16.0.0, SVG Export Plug-In . SVG Version: 6.00 Build 0)  -->
<!DOCTYPE svg PUBLIC "-//W3C//DTD SVG 1.1//EN" "http://www.w3.org/Graphics/SVG/1.1/DTD/svg11.dtd">
<svg version="1.1" id="Layer_1" xmlns="http://www.w3.org/2000/svg" xmlns:xlink="http://www.w3.org/1999/xlink" x="0px" y="0px"
	 width="166px" height="171px" viewBox="0 0 166 171" enable-background="new 0 0 166 171" xml:space="preserve">
<g>
	<g>
		<polygon fill="#BA202E" points="132.053,65.462 76.708,65.462 86.106,152.627 122.654,152.627 		"/>
	</g>
	<polygon fill="#FFFFFF" stroke="#414142" stroke-width="0.75" stroke-miterlimit="10" points="107.024,62.477 103.503,61.977 
		107.997,30.529 129.267,27.191 129.815,30.706 111.143,33.633 	"/>
</g>
<g>
	<path fill="#31803E" d="M101.144,115.177c0,1.861-1.508,3.371-3.37,3.371H27.829c-1.862,0-3.371-1.509-3.371-3.371l0,0
		c0-1.862,1.509-3.371,3.371-3.371h69.945C99.635,111.806,101.144,113.315,101.144,115.177L101.144,115.177z"/>
	<path fill="#E28B56" d="M101.144,145.539c0,3.737-3.029,6.767-6.767,6.767H31.224c-3.736,0-6.766-3.03-6.766-6.767v-2.152
		c0-3.736,3.03-6.767,6.766-6.767h63.153c3.737,0,6.767,3.03,6.767,6.767V145.539z"/>
	<path fill="#EA5432" d="M101.144,133.378c0,1.791-1.452,3.242-3.242,3.242H27.701c-1.791,0-3.243-1.451-3.243-3.242l0,0
		c0-1.791,1.452-3.242,3.243-3.242h70.201C99.692,130.136,101.144,131.588,101.144,133.378L101.144,133.378z"/>
	<path fill="#5D3E2E" d="M101.708,124.342c0,3.201-2.594,5.794-5.794,5.794H29.689c-3.2,0-5.794-2.594-5.794-5.794l0,0
		c0-3.2,2.594-5.794,5.794-5.794h66.225C99.114,118.547,101.708,121.142,101.708,124.342L101.708,124.342z"/>
	<polygon fill="#FDCA09" points="27.829,111.806 62.801,126.753 97.774,111.806 	"/>
	<path fill="#E28B56" d="M24.458,112.118h76.686c0,0,0.282-20.922-38.342-20.922C24.176,91.196,24.458,112.118,24.458,112.118z"/>
</g>
<path fill="#FFFFFF" stroke="#414142" stroke-width="0.75" stroke-miterlimit="10" d="M124.155,58.275
	c0-1.163-0.943-2.105-2.104-2.105H86.71c-1.163,0-2.104,0.942-2.104,2.105h-7.897v7.453h55.344v-7.453H124.155z"/>
</svg>
