<?xml version="1.0" encoding="utf-8"?>
<!-- Generator: Adobe Illustrator 17.0.0, SVG Export Plug-In . SVG Version: 6.00 Build 0)  -->
<!DOCTYPE svg PUBLIC "-//W3C//DTD SVG 1.1//EN" "http://www.w3.org/Graphics/SVG/1.1/DTD/svg11.dtd">
<svg version="1.1" xmlns="http://www.w3.org/2000/svg" xmlns:xlink="http://www.w3.org/1999/xlink" x="0px" y="0px"
	 width="153.961px" height="38px" viewBox="0 0 153.961 38" enable-background="new 0 0 153.961 38" xml:space="preserve">
<g id="Anuncios">
	<g>
		<g>
			<g>
				<path fill="#424243" d="M64.939,22.862c0.408,0,0.756,0.14,1.043,0.419c0.289,0.28,0.432,0.624,0.432,1.031
					c0,0.399-0.141,0.735-0.426,1.007c-0.283,0.271-0.633,0.408-1.049,0.408c-0.408,0-0.75-0.137-1.029-0.408
					c-0.281-0.271-0.42-0.608-0.42-1.007c0-0.407,0.139-0.751,0.42-1.031C64.189,23.002,64.531,22.862,64.939,22.862z"/>
				<path fill="#424243" d="M75.967,14.507h2.447l-7.814,16.65h-2.436l3.744-7.99l-4.26-8.66h2.488l2.977,6.229L75.967,14.507z"/>
				<path fill="#424243" d="M79.41,24.744v-2.35c0.615,0.432,1.244,0.781,1.887,1.049c0.645,0.268,1.186,0.401,1.625,0.401
					c0.455,0,0.846-0.111,1.176-0.335c0.326-0.224,0.49-0.492,0.49-0.804c0-0.319-0.107-0.585-0.316-0.797
					c-0.213-0.212-0.672-0.518-1.375-0.917c-1.404-0.783-2.326-1.452-2.762-2.008c-0.436-0.556-0.654-1.161-0.654-1.816
					c0-0.847,0.33-1.538,0.99-2.074c0.66-0.535,1.508-0.803,2.547-0.803c1.08,0,2.186,0.304,3.32,0.911v2.157
					c-1.295-0.782-2.354-1.174-3.176-1.174c-0.424,0-0.766,0.09-1.025,0.27c-0.26,0.18-0.391,0.418-0.391,0.714
					c0,0.257,0.117,0.501,0.354,0.732c0.234,0.232,0.648,0.512,1.24,0.839l0.779,0.443c1.84,1.039,2.76,2.189,2.76,3.452
					c0,0.902-0.354,1.643-1.062,2.223c-0.707,0.579-1.617,0.869-2.727,0.869c-0.656,0-1.24-0.07-1.75-0.21
					C80.828,25.378,80.183,25.12,79.41,24.744z"/>
				<path fill="#424243" d="M98.793,20.213h-7.756c0.055,1.055,0.41,1.895,1.061,2.518c0.65,0.623,1.494,0.935,2.525,0.935
					c1.438,0,2.764-0.447,3.979-1.343v2.134c-0.672,0.448-1.338,0.768-1.996,0.959c-0.658,0.192-1.432,0.288-2.318,0.288
					c-1.215,0-2.199-0.252-2.949-0.755c-0.752-0.504-1.354-1.181-1.805-2.032c-0.453-0.851-0.678-1.836-0.678-2.955
					c0-1.678,0.475-3.043,1.426-4.094c0.951-1.051,2.186-1.576,3.705-1.576c1.463,0,2.629,0.512,3.5,1.534
					c0.871,1.023,1.307,2.394,1.307,4.112V20.213z M91.084,18.906h5.553c-0.057-0.871-0.316-1.542-0.779-2.014
					c-0.465-0.472-1.088-0.707-1.871-0.707c-0.783,0-1.424,0.235-1.924,0.707C91.562,17.364,91.238,18.035,91.084,18.906z"/>
				<path fill="#424243" d="M100.592,18.319c0-1.175,0.43-2.104,1.289-2.787c0.859-0.684,2.031-1.025,3.517-1.025h4.543v1.702
					h-2.229c0.43,0.44,0.73,0.839,0.898,1.199c0.168,0.359,0.252,0.771,0.252,1.234c0,0.575-0.164,1.141-0.492,1.696
					c-0.328,0.556-0.748,0.981-1.264,1.276c-0.516,0.296-1.361,0.532-2.535,0.707c-0.824,0.12-1.234,0.404-1.234,0.852
					c0,0.256,0.152,0.466,0.459,0.629c0.309,0.164,0.867,0.334,1.674,0.51c1.352,0.296,2.219,0.527,2.607,0.695
					c0.387,0.168,0.736,0.407,1.049,0.72c0.527,0.527,0.791,1.19,0.791,1.989c0,1.047-0.465,1.883-1.396,2.506
					c-0.932,0.623-2.176,0.935-3.734,0.935c-1.574,0-2.83-0.314-3.771-0.941c-0.938-0.628-1.406-1.469-1.406-2.523
					c0-1.495,0.922-2.458,2.77-2.89c-0.736-0.471-1.104-0.938-1.104-1.402c0-0.352,0.156-0.671,0.473-0.959
					c0.316-0.287,0.742-0.499,1.277-0.635C101.402,21.088,100.592,19.925,100.592,18.319z M104.176,26.051
					c-0.734,0-1.336,0.156-1.805,0.468c-0.467,0.312-0.701,0.711-0.701,1.198c0,1.135,1.023,1.702,3.07,1.702
					c0.967,0,1.715-0.142,2.246-0.425c0.531-0.284,0.797-0.686,0.797-1.205c0-0.512-0.336-0.929-1.006-1.253
					C106.105,26.213,105.238,26.051,104.176,26.051z M104.691,16.4c-0.592,0-1.096,0.2-1.512,0.6c-0.416,0.4-0.621,0.88-0.621,1.439
					c0,0.567,0.203,1.037,0.609,1.409c0.408,0.371,0.924,0.557,1.547,0.557c0.615,0,1.129-0.189,1.541-0.569
					c0.41-0.379,0.617-0.853,0.617-1.42c0-0.575-0.209-1.056-0.623-1.438C105.834,16.593,105.314,16.4,104.691,16.4z"/>
				<path fill="#424243" d="M118.658,25.535v-1.414c-0.465,0.507-0.994,0.901-1.59,1.184c-0.594,0.281-1.188,0.423-1.779,0.423
					c-0.695,0-1.336-0.174-1.926-0.521c-0.586-0.348-1.029-0.819-1.33-1.415c-0.299-0.595-0.449-1.584-0.449-2.967v-6.317h2.182
					v6.285c0,1.157,0.166,1.966,0.498,2.425c0.332,0.459,0.912,0.688,1.744,0.688c1.039,0,1.922-0.508,2.65-1.522v-7.876h2.182
					v11.028H118.658z"/>
				<path fill="#424243" d="M125.033,9.867c0.361,0,0.67,0.124,0.926,0.372c0.254,0.248,0.383,0.552,0.383,0.911
					c0,0.352-0.129,0.655-0.383,0.911c-0.256,0.256-0.564,0.384-0.926,0.384c-0.334,0-0.629-0.13-0.887-0.39
					c-0.254-0.26-0.383-0.561-0.383-0.905c0-0.336,0.129-0.634,0.383-0.893C124.404,9.998,124.699,9.867,125.033,9.867z
					 M123.957,14.507h2.182v11.028h-2.182V14.507z"/>
				<path fill="#424243" d="M136.65,8.789h2.195v16.746h-4.664c-1.631,0-2.932-0.516-3.902-1.546
					c-0.971-1.031-1.455-2.414-1.455-4.148c0-1.622,0.508-2.956,1.527-4.003c1.02-1.047,2.32-1.571,3.902-1.571
					c0.734,0,1.535,0.156,2.396,0.468V8.789z M136.65,23.665v-6.988c-0.678-0.344-1.367-0.516-2.061-0.516
					c-1.088,0-1.953,0.355-2.596,1.066c-0.645,0.712-0.965,1.671-0.965,2.878c0,1.135,0.279,2.01,0.84,2.625
					c0.334,0.367,0.689,0.615,1.064,0.743c0.377,0.128,1.051,0.191,2.027,0.191H136.65z"/>
				<path fill="#424243" d="M147.08,14.483c1.678,0,3.072,0.542,4.184,1.625c1.111,1.083,1.666,2.443,1.666,4.081
					c0,1.591-0.565,2.911-1.69,3.962c-1.127,1.052-2.545,1.577-4.258,1.577c-1.652,0-3.035-0.534-4.146-1.601
					c-1.109-1.067-1.666-2.399-1.666-3.998c0-1.614,0.561-2.959,1.686-4.034C143.976,15.021,145.387,14.483,147.08,14.483z
					 M146.959,16.449c-1.045,0-1.904,0.344-2.576,1.03c-0.672,0.688-1.006,1.562-1.006,2.626c0,1.055,0.342,1.916,1.029,2.583
					c0.688,0.667,1.57,1.001,2.65,1.001c1.07,0,1.947-0.338,2.631-1.013c0.684-0.676,1.025-1.541,1.025-2.596
					c0-1.047-0.355-1.914-1.066-2.602C148.933,16.793,148.039,16.449,146.959,16.449z"/>
			</g>
		</g>
		<path fill="#D25D2B" d="M23.553,12.492c0,6.081-4.928,11.011-11.01,11.011c-6.082,0-11.012-4.93-11.012-11.011
			c0-6.084,4.93-11.011,11.012-11.011C18.625,1.482,23.553,6.408,23.553,12.492z"/>
		<circle fill="#5DA5A4" cx="36.445" cy="12.598" r="11.01"/>
		<g>
			<g>
				<g>
					<path fill="#5DA5A4" d="M24.605,31.696c1.818,3.642,6.07,4.856,8.496,4.856c7.889,0,9.101-5.461,9.101-5.461
						c-0.605,0.605-1.82,1.213-3.642,1.213c-3.031,0-3.639-5.463-7.885-5.463c-4.252,0-6.07,3.037-6.07,3.037"/>
				</g>
			</g>
		</g>
		<g id="Layer_2_264_">
			<path fill="#D25D2B" d="M24.603,29.878c0,0-1.82-3.037-6.066-3.037c-4.25,0-4.857,5.463-7.891,5.463
				c-1.82,0-3.035-0.607-3.641-1.213c0,0,1.213,5.461,9.104,5.461c2.428,0,6.674-1.214,8.494-4.856"/>
		</g>
	</g>
</g>
<g id="Selecionado" display="none">
</g>
<g id="Hover" display="none">
</g>
<g id="Grilla" display="none">
</g>
</svg>
