<?xml version="1.0" encoding="utf-8"?>
<!-- Generator: Adobe Illustrator 16.0.0, SVG Export Plug-In . SVG Version: 6.00 Build 0)  -->
<!DOCTYPE svg PUBLIC "-//W3C//DTD SVG 1.1//EN" "http://www.w3.org/Graphics/SVG/1.1/DTD/svg11.dtd">
<svg version="1.1" id="Layer_1" xmlns="http://www.w3.org/2000/svg" xmlns:xlink="http://www.w3.org/1999/xlink" x="0px" y="0px"
	 width="84.195px" height="89.069px" viewBox="0 0 84.195 89.069" enable-background="new 0 0 84.195 89.069" xml:space="preserve">
<g>
	<path fill="#C4202E" d="M16.5,59.547l-7.679,0.156C3.907,59.805-0.04,61.51,0,63.514l0.189,9.359l84.005-1.705l-0.347-9.354
		c-0.039-2.006-4.052-3.549-8.966-3.449l-7.527,0.152"/>
	<g>
		<g>
			<g>
				<g id="Layer_2_16_">
					<path fill="#FFFFFF" d="M19.12,75.542c0.386-0.007,1.053-0.212,1.333-0.799c0.301,0.574,0.978,0.753,1.363,0.744
						c1.254-0.025,1.426-0.896,1.426-0.896c-0.092,0.099-0.282,0.198-0.572,0.204c-0.48,0.01-0.594-0.855-1.271-0.844
						c-0.674,0.018-0.952,0.504-0.952,0.504s-0.3-0.477-0.972-0.463c-0.677,0.012-0.756,0.885-1.24,0.893
						c-0.284,0.006-0.48-0.088-0.58-0.182C17.654,74.704,17.866,75.567,19.12,75.542z"/>
				</g>
			</g>
		</g>
		<circle fill="#FFFFFF" cx="18.472" cy="71.735" r="1.748"/>
		<path fill="#FFFFFF" d="M24.094,71.637c0.02,0.966-0.747,1.764-1.713,1.783c-0.967,0.02-1.765-0.748-1.784-1.711
			c-0.021-0.971,0.748-1.768,1.714-1.787C23.276,69.905,24.074,70.668,24.094,71.637z"/>
		<g id="Layer_2_7_">
			<path fill="#FFFFFF" d="M20.446,74.456c0,0-0.3-0.477-0.972-0.463c-0.677,0.012-0.756,0.885-1.24,0.893
				c-0.284,0.006-0.48-0.088-0.58-0.182c0,0,0.212,0.863,1.466,0.838c0.386-0.007,1.053-0.212,1.333-0.799"/>
		</g>
	</g>
	<polygon points="42.802,63.098 33.286,57.62 30.477,63.348 38.793,67.94 	"/>
	<polygon points="42.802,63.098 51.935,57.241 54.973,62.851 46.85,67.777 	"/>
	<g>
		<g>
			<g>
				<g id="Layer_2_15_">
					<path fill="#FFFFFF" d="M74.604,74.424c0.268-0.275,0.594-0.896,0.38-1.504c0.613,0.189,1.221-0.164,1.488-0.441
						c0.867-0.906,0.372-1.645,0.372-1.645c0.007,0.137-0.058,0.344-0.256,0.553c-0.335,0.348-1.031-0.184-1.495,0.301
						c-0.468,0.489-0.319,1.03-0.319,1.03s-0.548-0.124-1.017,0.361c-0.467,0.485,0.094,1.156-0.24,1.506
						c-0.201,0.21-0.404,0.28-0.54,0.284C72.977,74.87,73.738,75.331,74.604,74.424z"/>
				</g>
			</g>
		</g>
		<path fill="#FFFFFF" d="M72.664,70.927c0.695,0.671,0.718,1.778,0.05,2.475s-1.775,0.718-2.472,0.05
			c-0.694-0.67-0.718-1.774-0.052-2.474C70.861,70.284,71.967,70.258,72.664,70.927z"/>
		<path fill="#FFFFFF" d="M75.359,68.147c0.695,0.668,0.718,1.775,0.05,2.472c-0.667,0.694-1.774,0.718-2.473,0.048
			c-0.694-0.665-0.718-1.771-0.05-2.469C73.555,67.499,74.664,67.478,75.359,68.147z"/>
		<g id="Layer_2_5_">
			<path fill="#FFFFFF" d="M74.773,72.721c0,0-0.547-0.127-1.016,0.358c-0.467,0.485,0.094,1.156-0.24,1.506
				c-0.201,0.21-0.404,0.28-0.54,0.284c0,0,0.761,0.461,1.627-0.445c0.268-0.275,0.594-0.896,0.376-1.504"/>
		</g>
	</g>
	<g>
		<defs>
			
				<rect id="SVGID_1_" x="52.031" y="68.092" transform="matrix(0.9998 -0.0204 0.0204 0.9998 -1.5778 1.3106)" width="23.01" height="20.012"/>
		</defs>
		<clipPath id="SVGID_2_">
			<use xlink:href="#SVGID_1_"  overflow="visible"/>
		</clipPath>
	</g>
	<path fill="#FBCE99" d="M63.515,52.585c0.089,4.321-3.347,7.895-7.665,7.982l-25.428,0.517c-4.319,0.086-7.896-3.346-7.982-7.666
		l-0.587-28.906c-0.088-4.32,3.346-7.893,7.666-7.981l25.427-0.513c4.32-0.088,7.895,3.341,7.982,7.661L63.515,52.585z"/>
	<path fill="#3E2418" d="M28.545,18.724c0,0,9.471,9.592,20.552,9.149c11.079-0.444,22.009-8.057,22.009-8.057l-6.736-0.078
		l1.7-1.776l-2.173,0.042l4.304-2.256L60.347,14.6c0,0-0.441-11.076-6.577-13.562c-6.139-2.485-20.239-0.895-27.646,9.039
		c0,0-6.347-2.044-9.079,2.574c-2.421,4.086-0.423,11.315,3.114,14.287l0.245,12.064l1.741-0.036l-0.237-11.708
		C21.909,27.258,28.759,29.235,28.545,18.724z"/>
	
		<rect x="20.3" y="25.964" transform="matrix(0.9998 -0.02 0.02 0.9998 -0.6711 0.4366)" fill="#3E2418" width="2.393" height="15.624"/>
	
		<rect x="61.575" y="23.251" transform="matrix(0.9998 -0.0204 0.0204 0.9998 -0.6401 1.288)" fill="#3E2418" width="2.392" height="17.5"/>
	<g>
		<g>
			<defs>
				
					<rect id="SVGID_3_" x="7.499" y="68.828" transform="matrix(-0.9998 0.0203 -0.0203 -0.9998 39.6022 157.2633)" width="23.01" height="20.01"/>
			</defs>
			<clipPath id="SVGID_4_">
				<use xlink:href="#SVGID_3_"  overflow="visible"/>
			</clipPath>
			<g clip-path="url(#SVGID_4_)">
				<path fill="#FBCE99" d="M27.117,81.763c1.272-0.024,2.281-1.075,2.253-2.341L28.912,56.84l-16.345,0.234l0.026-0.002
					l-3.312,0.068l0.021-0.007l-1.484,0.454l-0.929,0.818l-1.13,1.178l-0.702,0.731l-3.124,3.252C1.057,64.481,1.086,65.94,2,66.817
					c0.458,0.441,1.052,0.652,1.639,0.641c0.59-0.012,1.173-0.247,1.613-0.707l3.68-3.83l0.26,12.931l0.03-0.003
					c-0.009,0.097-0.024,0.195-0.023,0.291l0.122,5.986c0.026,1.271,1.075,2.281,2.342,2.256c0.592-0.014,1.117-0.252,1.518-0.625
					c0.288-0.27,0.505-0.607,0.622-0.995c0.075-0.229,0.122-0.474,0.117-0.729l-0.121-5.985c-0.003-0.097-0.025-0.195-0.038-0.288
					l0.594-0.013c-0.011,0.095-0.026,0.194-0.024,0.29l0.21,10.262c0.005,0.265,0.062,0.51,0.147,0.744
					c0.332,0.896,1.192,1.529,2.195,1.509c1.271-0.025,2.278-1.075,2.254-2.347l-0.209-10.262c-0.002-0.096-0.021-0.195-0.035-0.289
					l0.564-0.012l0.186,9.111c0.025,1.268,1.074,2.275,2.343,2.249c1.271-0.025,2.276-1.074,2.251-2.343l-0.187-9.108l0.646-0.016
					l0.08,3.979C24.801,80.787,25.851,81.792,27.117,81.763L27.117,81.763z M33.597,79.611"/>
			</g>
		</g>
		<path fill="#FBCE99" d="M9.06,69.044c0,0,9.497-4.839,20.158-0.39"/>
	</g>
	<g>
		<g>
			<defs>
				
					<rect id="SVGID_5_" x="56.953" y="67.823" transform="matrix(-0.9998 0.0202 -0.0202 -0.9998 138.4725 154.2583)" width="23.009" height="20.012"/>
			</defs>
			<clipPath id="SVGID_6_">
				<use xlink:href="#SVGID_5_"  overflow="visible"/>
			</clipPath>
			<g clip-path="url(#SVGID_6_)">
				<path fill="#FBCE99" d="M76.572,80.761c1.273-0.026,2.28-1.075,2.25-2.341l-0.457-22.584l-16.343,0.234h0.025l-3.312,0.068
					l0.021-0.008l-1.485,0.454l-0.928,0.817l-1.128,1.18l-0.703,0.73l-3.124,3.252c-0.875,0.914-0.846,2.373,0.066,3.25
					c0.46,0.439,1.052,0.652,1.64,0.641c0.591-0.011,1.173-0.249,1.612-0.707l3.68-3.832l0.262,12.93h0.029
					c-0.009,0.094-0.025,0.195-0.022,0.29l0.121,5.987c0.026,1.271,1.074,2.281,2.342,2.254c0.592-0.011,1.116-0.252,1.517-0.624
					c0.29-0.269,0.504-0.608,0.622-0.994c0.073-0.23,0.121-0.474,0.116-0.729l-0.121-5.985c-0.004-0.097-0.021-0.196-0.038-0.29
					l0.595-0.012c-0.009,0.094-0.023,0.195-0.022,0.291l0.208,10.262c0.006,0.265,0.062,0.51,0.148,0.744
					c0.33,0.896,1.19,1.529,2.194,1.51c1.271-0.027,2.28-1.078,2.254-2.346L68.382,74.94c-0.001-0.098-0.021-0.195-0.036-0.289
					l0.566-0.012l0.184,9.111c0.026,1.268,1.075,2.273,2.343,2.25c1.271-0.027,2.277-1.074,2.251-2.344l-0.187-9.109l0.646-0.016
					l0.081,3.979C74.255,79.785,75.305,80.788,76.572,80.761L76.572,80.761z M83.05,78.606"/>
			</g>
		</g>
		<path fill="#FBCE99" d="M58.513,68.042c0,0,9.498-4.84,20.158-0.389"/>
	</g>
	<circle fill="#FBCE99" cx="42.938" cy="51.047" r="20.542"/>
	<g>
		<g>
			<g>
				<g id="Layer_2_14_">
					<path fill="#3E2418" d="M37.731,57.965c1.599-0.033,4.378-0.888,5.528-3.309c1.248,2.373,4.06,3.113,5.658,3.082
						c5.19-0.104,5.916-3.717,5.916-3.717c-0.389,0.406-1.183,0.824-2.381,0.85c-1.994,0.039-2.467-3.547-5.264-3.492
						c-2.795,0.059-3.953,2.081-3.953,2.081s-1.24-1.974-4.036-1.919c-2.798,0.057-3.123,3.66-5.119,3.703
						c-1.2,0.022-2.008-0.361-2.412-0.754C31.668,54.491,32.539,58.071,37.731,57.965z"/>
				</g>
			</g>
		</g>
		<g id="Layer_2_3_">
			<path fill="#3E2418" d="M43.235,53.46c0,0-1.239-1.974-4.035-1.919c-2.798,0.057-3.123,3.66-5.12,3.703
				c-1.199,0.022-2.007-0.361-2.411-0.754c0,0,0.87,3.58,6.062,3.475c1.599-0.033,4.378-0.888,5.527-3.309"/>
		</g>
	</g>
</g>
</svg>
