<?xml version="1.0" encoding="utf-8"?>
<!-- Generator: Adobe Illustrator 16.0.0, SVG Export Plug-In . SVG Version: 6.00 Build 0)  -->
<!DOCTYPE svg PUBLIC "-//W3C//DTD SVG 1.1//EN" "http://www.w3.org/Graphics/SVG/1.1/DTD/svg11.dtd">
<svg version="1.1" id="Layer_1" xmlns="http://www.w3.org/2000/svg" xmlns:xlink="http://www.w3.org/1999/xlink" x="0px" y="0px"
	 width="212.852px" height="198.017px" viewBox="0 0 212.852 198.017" enable-background="new 0 0 212.852 198.017"
	 xml:space="preserve">
<g>
	<defs>
		<rect id="SVGID_1_" y="-5.961" width="212.852" height="203.979"/>
	</defs>
	<clipPath id="SVGID_2_">
		<use xlink:href="#SVGID_1_"  overflow="visible"/>
	</clipPath>
	<g clip-path="url(#SVGID_2_)">
		<g>
			<rect x="75.67" y="99.468" fill="#FBCE9A" width="25.594" height="31.973"/>
			<path fill="#A6A9AA" d="M55.512,123.882H45.475c-6.426,0-11.627,5.154-11.627,11.514v139.146v1.566v11.513h10.01h87.967h11.826
				v-11.513v-0.494l-0.201-140.219c0-6.359-5.203-11.514-11.625-11.514h-9.838"/>
			<circle fill="#FBCE9A" cx="87.982" cy="77.183" r="30.52"/>
			<path fill="#FBCE9A" d="M118.502,80.09c0,6.421-5.207,11.626-11.625,11.626H69.091c-6.423,0-11.628-5.205-11.628-11.626V37.136
				c0-6.42,5.205-11.625,11.628-11.625h37.786c6.418,0,11.625,5.205,11.625,11.625V80.09z"/>
			<path fill="#3D2519" d="M67.577,28.736c0,0,13.779,14.536,30.253,14.211c16.471-0.323,32.938-11.306,32.938-11.306L120.76,31.32
				l2.581-2.584h-3.228l6.459-3.225l-11.628-1.941c0,0-0.323-16.469-9.364-20.347C96.537-0.651,75.543,1.287,64.241,15.82
				c0,0-9.366-3.229-13.563,3.552c-3.717,5.995-0.969,16.792,4.197,21.313v17.928h2.588V41.214
				C57.463,41.214,67.577,44.358,67.577,28.736z"/>
			<rect x="54.875" y="39.277" fill="#3D2519" width="3.555" height="23.214"/>
			<rect x="116.24" y="36.491" fill="#3D2519" width="3.557" height="26"/>
			<g>
				<g>
					<g>
						<g id="Layer_2_26_">
							<path fill="#3D2519" d="M80.039,87.307c2.377,0,6.532-1.188,8.314-4.75c1.78,3.562,5.935,4.75,8.309,4.75
								c7.717,0,8.902-5.345,8.902-5.345c-0.592,0.595-1.781,1.189-3.56,1.189c-2.965,0-3.561-5.344-7.717-5.344
								c-4.154,0-5.935,2.969-5.935,2.969s-1.782-2.969-5.938-2.969c-4.157,0-4.748,5.344-7.716,5.344
								c-1.782,0-2.97-0.595-3.561-1.189C71.14,81.962,72.324,87.307,80.039,87.307z"/>
						</g>
					</g>
				</g>
				<g id="Layer_2_418_">
					<path fill="#3D2519" d="M88.352,80.777c0,0-1.78-2.969-5.936-2.969c-4.157,0-4.748,5.344-7.719,5.344
						c-1.779,0-2.969-0.595-3.558-1.189c0,0,1.185,5.345,8.899,5.345c2.377,0,6.532-1.188,8.312-4.75"/>
				</g>
			</g>
			<line fill="none" stroke="#232020" stroke-width="0.5" stroke-miterlimit="10" x1="88.75" y1="287.427" x2="88.75" y2="123.69"/>
			<g>
				<g>
					<g>
						<g id="Layer_2_25_">
							<path fill="#FFFFFF" d="M53.199,141.652c0.574,0,1.572-0.285,2.005-1.144c0.427,0.858,1.43,1.144,2.005,1.144
								c1.861,0,2.145-1.287,2.145-1.287c-0.141,0.144-0.428,0.287-0.855,0.287c-0.717,0-0.859-1.291-1.864-1.291
								c-1.003,0-1.43,0.717-1.43,0.717s-0.433-0.717-1.431-0.717c-1.006,0-1.148,1.291-1.864,1.291
								c-0.427,0-0.717-0.144-0.86-0.287C51.049,140.365,51.337,141.652,53.199,141.652z"/>
						</g>
					</g>
				</g>
				<path fill="#FFFFFF" d="M54.952,135.979c0,1.431-1.167,2.596-2.601,2.596s-2.598-1.165-2.598-2.596
					c0-1.438,1.164-2.601,2.598-2.601S54.952,134.542,54.952,135.979z"/>
				<path fill="#FFFFFF" d="M60.709,136.001c0,1.434-1.166,2.598-2.601,2.598c-1.434,0-2.597-1.164-2.597-2.598
					c0-1.438,1.163-2.597,2.597-2.597C59.543,133.405,60.709,134.564,60.709,136.001z"/>
				<g id="Layer_2_415_">
					<path fill="#FFFFFF" d="M55.204,140.078c0,0-0.433-0.717-1.431-0.717c-1.006,0-1.148,1.291-1.864,1.291
						c-0.427,0-0.717-0.144-0.86-0.287c0,0,0.288,1.287,2.15,1.287c0.574,0,1.572-0.285,2.005-1.144"/>
				</g>
			</g>
			<g>
				<g>
					<g>
						<g id="Layer_2_24_">
							<path fill="#FFFFFF" d="M73.881,162.34c0.576,0,1.579-0.288,2.009-1.146c0.427,0.857,1.431,1.146,2.003,1.146
								c1.861,0,2.146-1.29,2.146-1.29c-0.141,0.145-0.428,0.288-0.857,0.288c-0.715,0-0.858-1.292-1.861-1.292
								c-1.004,0-1.431,0.719-1.431,0.719s-0.43-0.719-1.433-0.719c-1,0-1.148,1.292-1.863,1.292c-0.426,0-0.713-0.144-0.857-0.288
								C71.736,161.05,72.022,162.34,73.881,162.34z"/>
						</g>
					</g>
				</g>
				<circle fill="#FFFFFF" cx="73.039" cy="156.662" r="2.6"/>
				<path fill="#FFFFFF" d="M81.392,156.688c0,1.434-1.163,2.597-2.595,2.597c-1.438,0-2.6-1.163-2.6-2.597
					c0-1.437,1.161-2.598,2.6-2.598C80.229,154.09,81.392,155.251,81.392,156.688z"/>
				<g id="Layer_2_412_">
					<path fill="#FFFFFF" d="M75.89,160.765c0,0-0.43-0.719-1.433-0.719c-1,0-1.148,1.292-1.863,1.292
						c-0.426,0-0.713-0.144-0.857-0.288c0,0,0.286,1.29,2.145,1.29c0.576,0,1.579-0.288,2.009-1.146"/>
				</g>
			</g>
			<g>
				<g>
					<g>
						<g id="Layer_2_23_">
							<path fill="#FFFFFF" d="M99.037,187.492c0.574,0,1.574-0.284,2.006-1.145c0.431,0.86,1.433,1.145,2.006,1.145
								c1.859,0,2.146-1.289,2.146-1.289c-0.143,0.145-0.43,0.289-0.859,0.289c-0.713,0-0.859-1.289-1.86-1.289
								c-1.002,0-1.433,0.717-1.433,0.717s-0.432-0.717-1.432-0.717c-1.004,0-1.146,1.289-1.861,1.289
								c-0.43,0-0.717-0.145-0.859-0.289C96.891,186.203,97.175,187.492,99.037,187.492z"/>
						</g>
					</g>
				</g>
				<path fill="#FFFFFF" d="M100.791,181.816c0,1.436-1.164,2.598-2.601,2.598c-1.432,0-2.597-1.162-2.597-2.598
					s1.165-2.6,2.597-2.6C99.627,179.216,100.791,180.38,100.791,181.816z"/>
				<circle fill="#FFFFFF" cx="103.948" cy="181.841" r="2.599"/>
				<g id="Layer_2_409_">
					<path fill="#FFFFFF" d="M101.041,185.919c0,0-0.43-0.717-1.43-0.717c-1.004,0-1.146,1.289-1.861,1.289
						c-0.43,0-0.717-0.145-0.859-0.289c0,0,0.284,1.289,2.146,1.289c0.574,0,1.574-0.284,2.004-1.145"/>
				</g>
			</g>
			<g>
				<g>
					<g>
						<g id="Layer_2_21_">
							<path fill="#FFFFFF" d="M99.037,145.281c0.574,0,1.574-0.285,2.006-1.145c0.431,0.859,1.433,1.145,2.006,1.145
								c1.859,0,2.146-1.287,2.146-1.287c-0.143,0.143-0.43,0.287-0.859,0.287c-0.713,0-0.859-1.29-1.86-1.29
								c-1.002,0-1.433,0.717-1.433,0.717s-0.432-0.717-1.432-0.717c-1.004,0-1.146,1.29-1.861,1.29
								c-0.43,0-0.717-0.145-0.859-0.287C96.891,143.994,97.175,145.281,99.037,145.281z"/>
						</g>
					</g>
				</g>
				<path fill="#FFFFFF" d="M100.791,139.606c0,1.434-1.164,2.597-2.601,2.597c-1.432,0-2.597-1.163-2.597-2.597
					c0-1.437,1.165-2.598,2.597-2.598C99.627,137.008,100.791,138.169,100.791,139.606z"/>
				<circle fill="#FFFFFF" cx="103.948" cy="139.628" r="2.599"/>
				<g id="Layer_2_403_">
					<path fill="#FFFFFF" d="M101.041,143.708c0,0-0.43-0.717-1.43-0.717c-1.004,0-1.146,1.29-1.861,1.29
						c-0.43,0-0.717-0.145-0.859-0.287c0,0,0.284,1.287,2.146,1.287c0.574,0,1.574-0.285,2.004-1.145"/>
				</g>
			</g>
			<g>
				<g>
					<g>
						<g id="Layer_2_20_">
							<path fill="#FFFFFF" d="M53.199,185.606c0.574,0,1.572-0.286,2.005-1.146c0.427,0.859,1.43,1.146,2.005,1.146
								c1.861,0,2.145-1.288,2.145-1.288c-0.141,0.143-0.428,0.288-0.855,0.288c-0.717,0-0.859-1.292-1.864-1.292
								c-1.003,0-1.43,0.717-1.43,0.717s-0.433-0.717-1.431-0.717c-1.006,0-1.148,1.292-1.864,1.292
								c-0.427,0-0.717-0.146-0.86-0.288C51.049,184.318,51.337,185.606,53.199,185.606z"/>
						</g>
					</g>
				</g>
				<circle fill="#FFFFFF" cx="52.353" cy="179.929" r="2.599"/>
				<circle fill="#FFFFFF" cx="58.11" cy="179.956" r="2.599"/>
				<g id="Layer_2_400_">
					<path fill="#FFFFFF" d="M55.204,184.031c0,0-0.433-0.717-1.431-0.717c-1.006,0-1.148,1.292-1.864,1.292
						c-0.427,0-0.717-0.146-0.86-0.288c0,0,0.288,1.288,2.15,1.288c0.574,0,1.572-0.286,2.005-1.146"/>
				</g>
			</g>
			<g>
				<circle fill="#FFFFFF" cx="73.039" cy="200.615" r="2.6"/>
			</g>
			<path fill="none" stroke="#414142" stroke-miterlimit="10" d="M86.77,135.316c0,0.803-0.652,1.453-1.453,1.453
				c-0.799,0-1.455-0.65-1.455-1.453s0.656-1.453,1.455-1.453C86.117,133.863,86.77,134.513,86.77,135.316z"/>
			<path fill="none" stroke="#414142" stroke-miterlimit="10" d="M86.77,153.241c0,0.802-0.652,1.452-1.453,1.452
				c-0.799,0-1.455-0.65-1.455-1.452c0-0.803,0.656-1.454,1.455-1.454C86.117,151.787,86.77,152.438,86.77,153.241z"/>
			<path fill="none" stroke="#414142" stroke-miterlimit="10" d="M86.77,171.162c0,0.805-0.652,1.455-1.453,1.455
				c-0.799,0-1.455-0.65-1.455-1.455c0-0.801,0.656-1.451,1.455-1.451C86.117,169.71,86.77,170.361,86.77,171.162z"/>
			<path fill="none" stroke="#414142" stroke-miterlimit="10" d="M86.77,189.088c0,0.803-0.652,1.454-1.453,1.454
				c-0.799,0-1.455-0.651-1.455-1.454c0-0.804,0.656-1.452,1.455-1.452C86.117,187.636,86.77,188.285,86.77,189.088z"/>
			<polygon fill="#232020" points="88.75,123.882 74.781,115.456 70.439,123.882 82.654,130.956 			"/>
			<polygon fill="#232020" points="88.75,123.882 102.5,115.456 106.842,123.882 94.629,130.956 			"/>
			<g>
				<g>
					<g>
						<g id="Layer_2_12_">
							<path fill="#FFFFFF" d="M37.15,164.128c0.404,0.404,1.316,0.911,2.229,0.61c-0.304,0.909,0.203,1.819,0.605,2.224
								c1.318,1.316,2.432,0.607,2.432,0.607c-0.201,0.003-0.507-0.099-0.81-0.402c-0.509-0.508,0.303-1.521-0.405-2.228
								c-0.708-0.71-1.521-0.509-1.521-0.509s0.203-0.81-0.504-1.518c-0.706-0.708-1.723,0.102-2.23-0.404
								c-0.301-0.302-0.404-0.607-0.402-0.811C36.543,161.699,35.836,162.812,37.15,164.128z"/>
						</g>
					</g>
				</g>
				<path fill="#FFFFFF" d="M42.402,161.353c-1.011,1.014-2.658,1.014-3.672,0c-1.014-1.015-1.014-2.66,0-3.676
					c1.014-1.014,2.661-1.012,3.672,0C43.42,158.693,43.42,160.338,42.402,161.353z"/>
				<path fill="#FFFFFF" d="M46.457,165.441c-1.014,1.015-2.658,1.015-3.674,0c-1.018-1.014-1.018-2.658,0-3.674
					c1.016-1.016,2.66-1.016,3.674,0S47.471,164.427,46.457,165.441z"/>
				<g id="Layer_2_376_">
					<path fill="#FFFFFF" d="M39.68,164.431c0,0,0.203-0.81-0.504-1.518c-0.706-0.708-1.723,0.102-2.23-0.404
						c-0.301-0.302-0.404-0.607-0.402-0.811c0,0-0.707,1.113,0.607,2.43c0.404,0.404,1.316,0.911,2.225,0.605"/>
				</g>
			</g>
		</g>
	</g>
	<g clip-path="url(#SVGID_2_)">
		<path fill="#FBCE9A" d="M211.207,187.718c5.764-10.306-5.152-22.836-9.286-25.336c-0.57-0.438-48.331-23.544-48.331-23.544
			l-7.531,20.232l45.339,21.628l0.046,0.115c0,0,0.894,0.34,1.18,1.055c0.065,0.16,0.104,0.323,0.131,0.482"/>
		<polygon fill="#A6A9AA" points="107.457,158.695 136.71,124.959 189.313,153.122 177.36,185.051 		"/>
		<g>
			<g>
				<g>
					<g id="Layer_2_11_">
						<path fill="#FFFFFF" d="M140.862,149.382c0.452-0.352,1.07-1.191,0.881-2.133c0.868,0.413,1.83,0.023,2.282-0.328
							c1.47-1.144,0.906-2.336,0.906-2.336c-0.022,0.201-0.163,0.491-0.502,0.754c-0.564,0.439-1.47-0.489-2.262,0.127
							c-0.789,0.613-0.69,1.443-0.69,1.443s-0.776-0.303-1.569,0.314c-0.792,0.616-0.113,1.721-0.678,2.16
							c-0.34,0.265-0.652,0.328-0.854,0.301C138.377,149.685,139.392,150.526,140.862,149.382z"/>
					</g>
				</g>
			</g>
			<path fill="#FFFFFF" d="M138.762,143.826c0.881,1.134,0.676,2.768-0.457,3.648c-1.13,0.88-2.765,0.677-3.646-0.456
				c-0.879-1.13-0.676-2.769,0.454-3.647C136.245,142.49,137.883,142.696,138.762,143.826z"/>
			<path fill="#FFFFFF" d="M143.322,140.313c0.88,1.131,0.673,2.765-0.457,3.644c-1.133,0.881-2.766,0.68-3.646-0.452
				c-0.881-1.134-0.677-2.768,0.457-3.648C140.805,138.976,142.44,139.179,143.322,140.313z"/>
			<g id="Layer_2_373_">
				<path fill="#FFFFFF" d="M141.478,146.91c0,0-0.776-0.303-1.569,0.314c-0.792,0.616-0.113,1.721-0.678,2.16
					c-0.34,0.265-0.652,0.328-0.854,0.301c0,0,1.015,0.841,2.485-0.303c0.452-0.352,1.07-1.191,0.881-2.133"/>
			</g>
		</g>
		<g>
			<g>
				<g>
					<g id="Layer_2_10_">
						<path fill="#FFFFFF" d="M163.893,159.401c0.451-0.352,1.068-1.192,0.879-2.134c0.868,0.413,1.832,0.024,2.285-0.328
							c1.469-1.143,0.905-2.334,0.905-2.334c-0.024,0.199-0.163,0.49-0.501,0.753c-0.564,0.439-1.473-0.489-2.264,0.126
							c-0.789,0.614-0.689,1.444-0.689,1.444s-0.778-0.303-1.57,0.313c-0.791,0.615-0.111,1.722-0.677,2.162
							c-0.339,0.264-0.654,0.325-0.853,0.3C161.408,159.704,162.423,160.544,163.893,159.401z"/>
					</g>
				</g>
			</g>
			<circle fill="#FFFFFF" cx="159.74" cy="155.44" r="2.6"/>
			<path fill="#FFFFFF" d="M166.352,150.329c0.882,1.134,0.674,2.768-0.456,3.646c-1.134,0.882-2.767,0.68-3.648-0.453
				s-0.675-2.766,0.459-3.647C163.835,148.996,165.471,149.196,166.352,150.329z"/>
			<g id="Layer_2_368_">
				<path fill="#FFFFFF" d="M164.508,156.928c0,0-0.778-0.303-1.57,0.313c-0.791,0.615-0.111,1.722-0.677,2.162
					c-0.339,0.264-0.654,0.325-0.853,0.3c0,0,1.015,0.841,2.484-0.303c0.451-0.352,1.068-1.192,0.879-2.134"/>
			</g>
		</g>
	</g>
	<g clip-path="url(#SVGID_2_)">
		<path fill="#FBCE9A" d="M191.408,176.324l-0.076,0.098c0,0,0.152,0.943-0.323,1.549c-0.106,0.137-0.229,0.251-0.353,0.354
			l-40.432-2.003c0,0-3.468,0.279-6.848-1.059c-3.379-1.337,1.779,18.085,1.779,18.085s50.385,4.232,50.881,4.181
			c12.159-1.312,18.611-10.264,15.926-21.241"/>
		<g>
			<path fill-rule="evenodd" clip-rule="evenodd" fill="#FBCE9A" d="M131.429,168.25c-0.198,0.522-2.506-0.205-3.028-0.149
				c1.064,2.177,1.479,6.36-1.081,6.63c2.177,1.715-0.56,7.059-3.747,7.673c2.375,2.045,3.967,6.616,1.059,7.748
				c2.441,1.241,0.797,5.593-1.059,7.157c4.962,0.948,8.229,0.34,13.751-0.229c3.797-0.02,12.185-3.332,14.097-7.267
				c0.898-1.852-2.907,1.466-2.412-1.368c0.49-2.821,1.584-6.093,1.387-7.952c-0.33-3.079-4.119-3.188-7.047-3.711
				c-0.117-4.849-4.211-12.783-4.771-18.21c-0.264-2.582,0.53-4.179-0.52-5.552c-1.004-1.313-3.418-1.62-4.576-0.796
				C129.568,155.001,133.008,163.579,131.429,168.25z"/>
			<path fill-rule="evenodd" clip-rule="evenodd" fill="#FBCE9A" stroke="#FBCE9A" stroke-miterlimit="10" d="M128.382,168.603
				c-1.99-0.646-12.519-3.476-14.61-1.486c-1.488,1.408-1.453,4.328-0.317,5.236c0.974,0.785,13.275,4.518,15.166,3.799
				C131.59,175.019,131.029,169.461,128.382,168.603z"/>
			<path fill-rule="evenodd" clip-rule="evenodd" fill="#FBCE9A" stroke="#FBCE9A" stroke-miterlimit="10" d="M127.59,176.164
				c-1.305-0.814-5.261-1.166-8.873-1.793c-3.52-0.616-9.212-2.606-9.699,1.534c-0.428,3.621,4.593,3.78,8.893,4.53
				c3.587,0.625,9.355,2.601,10.696-0.123C129.612,178.261,128.217,176.555,127.59,176.164z"/>
			<path fill-rule="evenodd" clip-rule="evenodd" fill="#FBCE9A" stroke="#FBCE9A" stroke-miterlimit="10" d="M126.069,183.277
				c-1.358-0.771-13.367-3.494-15.511-1.945c-0.873,0.624-1.307,1.99-1.342,2.972c-0.108,3.249,4.573,3.387,8.61,4.025
				c3.753,0.6,8.793,2.623,9.532-0.865C127.941,184.721,126.803,183.693,126.069,183.277z"/>
			<path fill-rule="evenodd" clip-rule="evenodd" fill="#FBCE9A" stroke="#FBCE9A" stroke-width="2" stroke-miterlimit="10" d="
				M111.711,194.083c1.501,0.942,11.734,4.3,14.289,1.17c1.171-1.44,0.621-3.907-1.121-4.468c-2.964-0.947-9.112-1.412-11.502-1.201
				c-1.137,0.099-1.861,0.86-2.061,1.617C110.824,193.031,111.646,194.041,111.711,194.083z"/>
		</g>
	</g>
	<g clip-path="url(#SVGID_2_)">
		<path fill="#FBCE9A" d="M8.631,210.093c-0.138-0.056,19.361-47.434,19.361-47.434l19.865,8.453l-18.693,43.943l0.053,0.113
			c0,0-0.367,0.882-0.046,1.581c0.071,0.157,0.164,0.298,0.259,0.427l29.872,10.231c0,0,3.307,1.079,6.905,0.564
			c3.598-0.514-5.94,17.174-5.94,17.174s-40.069-10.38-40.539-10.546C8.207,230.496,8.312,214.911,8.631,210.093z"/>
		<polygon fill="#A6A9AA" points="66.092,133.183 34.938,131.41 9.534,181.676 38.627,196.886 		"/>
		<g>
			<g>
				<g>
					<g id="Layer_2_9_">
						<path fill="#FFFFFF" d="M44.4,160.676c-0.565,0.086-1.602-0.043-2.153-0.828c-0.298,0.914-1.242,1.345-1.809,1.431
							c-1.841,0.28-2.317-0.949-2.317-0.949c0.16,0.123,0.468,0.22,0.891,0.155c0.708-0.108,0.656-1.404,1.648-1.556
							c0.988-0.149,1.521,0.492,1.521,0.492s0.316-0.771,1.309-0.922c0.992-0.151,1.327,1.102,2.034,0.994
							c0.426-0.065,0.687-0.249,0.806-0.413C46.33,159.081,46.242,160.396,44.4,160.676z"/>
					</g>
				</g>
			</g>
			<path fill="#FFFFFF" d="M41.813,155.329c0.216,1.42,1.543,2.396,2.962,2.179c1.416-0.215,2.394-1.541,2.178-2.961
				c-0.216-1.415-1.545-2.395-2.96-2.179C42.574,152.583,41.598,153.914,41.813,155.329z"/>
			<path fill="#FFFFFF" d="M36.126,156.222c0.216,1.417,1.544,2.391,2.959,2.175c1.419-0.216,2.396-1.54,2.181-2.957
				c-0.217-1.42-1.543-2.395-2.963-2.179C36.888,153.476,35.91,154.802,36.126,156.222z"/>
			<g id="Layer_2_365_">
				<path fill="#FFFFFF" d="M42.182,159.421c0,0,0.316-0.771,1.309-0.922c0.992-0.151,1.327,1.102,2.034,0.994
					c0.426-0.065,0.687-0.249,0.806-0.413c0,0-0.088,1.315-1.93,1.596c-0.565,0.086-1.602-0.043-2.153-0.828"/>
			</g>
		</g>
		<g>
			<g>
				<g>
					<g id="Layer_2_8_">
						<path fill="#FFFFFF" d="M35.83,184.283c-0.566,0.087-1.602-0.044-2.153-0.829c-0.298,0.914-1.243,1.347-1.812,1.433
							c-1.839,0.28-2.316-0.949-2.316-0.949c0.161,0.12,0.469,0.219,0.892,0.155c0.707-0.108,0.658-1.405,1.648-1.557
							c0.988-0.15,1.522,0.493,1.522,0.493s0.315-0.772,1.309-0.924c0.99-0.15,1.325,1.104,2.033,0.996
							c0.426-0.065,0.688-0.251,0.805-0.413C37.758,182.688,37.67,184.003,35.83,184.283z"/>
					</g>
				</g>
			</g>
			<circle fill="#FFFFFF" cx="35.812" cy="178.545" r="2.599"/>
			<path fill="#FFFFFF" d="M27.554,179.828c0.216,1.419,1.546,2.393,2.96,2.177c1.42-0.216,2.396-1.54,2.181-2.959
				c-0.216-1.42-1.542-2.394-2.963-2.177C28.317,177.083,27.338,178.409,27.554,179.828z"/>
			<g id="Layer_2_92_">
				<path fill="#FFFFFF" d="M33.611,183.029c0,0,0.315-0.772,1.309-0.924c0.99-0.15,1.325,1.104,2.033,0.996
					c0.426-0.065,0.688-0.251,0.805-0.413c0,0-0.088,1.315-1.928,1.595c-0.566,0.087-1.602-0.044-2.153-0.829"/>
			</g>
		</g>
	</g>
</g>
</svg>
